M48
; DRILL file {KiCad 9.0.1} date 2025-07-19T16:42:16+1000
; FORMAT={-:-/ absolute / inch / decimal}
; #@! TF.CreationDate,2025-07-19T16:42:16+10:00
; #@! TF.GenerationSoftware,Kicad,Pcbnew,9.0.1
; #@! TF.FileFunction,Plated,1,2,PTH
FMAT,2
INCH
; #@! TA.AperFunction,Plated,PTH,ViaDrill
T1C0.0118
; #@! TA.AperFunction,Plated,PTH,ComponentDrill
T2C0.0118
; #@! TA.AperFunction,Plated,PTH,ComponentDrill
T3C0.0315
%
G90
G05
T1
X4.0453Y-2.7657
X4.0453Y-2.8051
X4.0453Y-2.8445
X4.0453Y-2.8839
X4.0453Y-2.9232
X4.0453Y-2.9626
X4.0453Y-3.002
X4.0453Y-3.0413
X4.0453Y-3.0807
X4.0453Y-3.1201
X4.0453Y-3.1594
X4.0846Y-2.7657
X4.0846Y-2.8051
X4.0846Y-2.8445
X4.0846Y-2.8839
X4.0846Y-2.9232
X4.0846Y-2.9626
X4.0846Y-3.002
X4.0846Y-3.0413
X4.0846Y-3.0807
X4.0846Y-3.1201
X4.0846Y-3.1594
X4.1339Y-2.8445
X4.1339Y-2.9626
X4.1339Y-3.002
X4.1339Y-3.0413
X4.1339Y-3.0807
X4.1339Y-3.1201
X4.1339Y-3.1594
X4.1831Y-2.9626
X4.1831Y-3.002
X4.1831Y-3.0413
X4.1831Y-3.0807
X4.1831Y-3.1201
X4.1831Y-3.1594
X4.2323Y-3.002
X4.2323Y-3.0413
X4.2323Y-3.0807
X4.2323Y-3.1201
X4.2323Y-3.1594
X4.2815Y-3.1201
X4.2815Y-3.1594
X4.3307Y-3.1201
X4.3307Y-3.1594
X4.3799Y-3.1201
X4.3799Y-3.1594
X4.4291Y-3.1201
X4.4409Y-2.7913
X4.4685Y-3.1201
X4.4724Y-2.6929
X4.4961Y-3.0315
X4.4961Y-3.0709
X4.5079Y-3.1201
X4.5079Y-3.1496
X4.5079Y-3.1811
X4.5106Y-2.7201
X4.5354Y-2.7549
X4.5512Y-3.0315
X4.5512Y-3.0709
X4.5571Y-3.1201
X4.5571Y-3.1496
X4.5571Y-3.1811
X4.563Y-2.9016
X4.5727Y-2.7224
X4.6063Y-2.7874
X4.6063Y-3.0315
X4.6063Y-3.0709
X4.6063Y-3.1201
X4.6063Y-3.1496
X4.6063Y-3.1811
X4.6353Y-2.7224
X4.6555Y-3.1201
X4.6555Y-3.1496
X4.6555Y-3.1811
X4.6693Y-3.0315
X4.6693Y-3.0709
X4.6979Y-2.7224
X4.7047Y-3.1201
X4.7047Y-3.1496
X4.7047Y-3.1811
X4.7126Y-2.8268
X4.7402Y-3.0315
X4.7402Y-3.0709
X4.752Y-2.8268
X4.7539Y-3.1201
X4.7539Y-3.1496
X4.7539Y-3.1811
X4.7619Y-2.7224
X4.7913Y-2.8268
X4.8031Y-3.1201
X4.8031Y-3.1496
X4.8031Y-3.1811
X4.811Y-3.0315
X4.811Y-3.0709
X4.8247Y-2.8067
X4.8467Y-2.6623
X4.8524Y-3.1201
X4.8524Y-3.1496
X4.8524Y-3.1811
X4.8535Y-2.8115
X4.874Y-3.0079
X4.874Y-3.0709
X4.8823Y-2.8543
X4.9016Y-2.6623
X4.9227Y-3.1654
X4.9229Y-3.0236
X4.9229Y-3.063
X4.9229Y-3.126
X4.9231Y-2.878
X4.9291Y-2.9921
X4.9606Y-2.6623
X4.9646Y-2.6929
X4.9803Y-3.0591
X4.9803Y-3.1024
X4.9803Y-3.1417
X4.9803Y-3.189
X4.9824Y-2.9764
X4.9824Y-3.0157
X4.9838Y-2.8881
X4.9968Y-2.7291
X5.0003Y-2.8204
X5.0394Y-3.0157
X5.0394Y-3.063
X5.0394Y-3.1102
X5.0394Y-3.1575
X5.0644Y-2.8042
X5.1182Y-2.7366
X5.126Y-2.9685
X5.126Y-3.0157
X5.126Y-3.063
X5.126Y-3.1102
X5.126Y-3.1575
X5.1369Y-2.814
X5.1417Y-2.8976
X5.1669Y-2.9685
X5.1669Y-3.0157
X5.1669Y-3.063
X5.1669Y-3.1102
X5.1669Y-3.1575
X5.1693Y-2.8307
X5.1732Y-2.8976
X5.1772Y-2.6693
X5.1772Y-2.7953
X5.2043Y-2.8165
X5.2283Y-2.9764
X5.2283Y-3.0315
X5.2283Y-3.0866
X5.2283Y-3.1417
X5.2283Y-3.1811
X5.2362Y-2.7969
X5.2362Y-2.8346
X5.2461Y-2.7165
X5.2559Y-2.6693
X5.2756Y-2.7756
X5.2756Y-2.8346
X5.2756Y-2.8937
X5.2835Y-3.1811
X5.2953Y-2.9331
X5.2953Y-2.9921
X5.2953Y-3.0512
X5.2953Y-3.1102
X5.3275Y-2.8583
X5.3346Y-2.6693
X5.3346Y-2.8937
X5.3543Y-2.9331
X5.3543Y-2.9921
X5.3543Y-3.0512
X5.3543Y-3.1102
X5.3638Y-2.8261
X5.365Y-2.7607
X5.3937Y-2.7362
X5.3937Y-2.7953
X5.3937Y-3.1811
X5.4055Y-2.8661
X5.4134Y-2.6693
X5.4429Y-3.1831
X5.4528Y-2.7362
X5.4528Y-2.7953
X5.4528Y-2.8543
X5.4528Y-2.9134
X5.4528Y-2.9724
X5.4528Y-3.0315
X5.4528Y-3.0906
X5.4806Y-2.7092
X5.4921Y-2.6693
X5.4992Y-2.8937
X5.4992Y-2.9528
X5.4992Y-3.0709
X5.4992Y-3.13
X5.5Y-3.0197
X5.5118Y-2.7362
X5.5118Y-2.7953
X5.5118Y-2.8543
X5.5669Y-2.7244
X5.5669Y-2.7953
X5.5669Y-3.1102
X5.6142Y-2.7244
X5.6142Y-2.7953
X5.6142Y-2.9291
X5.6142Y-2.9921
X5.6142Y-3.1102
X5.6693Y-2.7244
X5.6693Y-2.7953
X5.6693Y-2.9291
X5.6693Y-2.9921
X5.6693Y-3.1102
X5.7165Y-2.7244
X5.7165Y-2.7953
X5.7165Y-2.9291
X5.7165Y-2.9921
X5.7165Y-3.1102
T2
X4.8937Y-2.7441
X4.8937Y-2.7835
X4.9331Y-2.7441
X4.9331Y-2.7835
T3
G00X4.1378Y-2.687
M15
G01X4.2402Y-2.687
M16
G05
G00X4.1457Y-2.9154
M15
G01X4.2323Y-2.9154
M16
G05
G00X4.378Y-2.8484
M15
G01X4.378Y-2.7618
M16
G05
G00X5.8543Y-2.685
M15
G01X5.9567Y-2.685
M16
G05
G00X5.8622Y-2.9134
M15
G01X5.9488Y-2.9134
M16
G05
G00X6.0945Y-2.8465
M15
G01X6.0945Y-2.7598
M16
G05
M30
