%TF.GenerationSoftware,KiCad,Pcbnew,9.0.1*%
%TF.CreationDate,2025-07-19T16:42:16+10:00*%
%TF.ProjectId,starlink-apo-pcb,73746172-6c69-46e6-9b2d-61706f2d7063,rev?*%
%TF.SameCoordinates,Original*%
%TF.FileFunction,Soldermask,Top*%
%TF.FilePolarity,Negative*%
%FSLAX46Y46*%
G04 Gerber Fmt 4.6, Leading zero omitted, Abs format (unit mm)*
G04 Created by KiCad (PCBNEW 9.0.1) date 2025-07-19 16:42:16*
%MOMM*%
%LPD*%
G01*
G04 APERTURE LIST*
G04 Aperture macros list*
%AMRoundRect*
0 Rectangle with rounded corners*
0 $1 Rounding radius*
0 $2 $3 $4 $5 $6 $7 $8 $9 X,Y pos of 4 corners*
0 Add a 4 corners polygon primitive as box body*
4,1,4,$2,$3,$4,$5,$6,$7,$8,$9,$2,$3,0*
0 Add four circle primitives for the rounded corners*
1,1,$1+$1,$2,$3*
1,1,$1+$1,$4,$5*
1,1,$1+$1,$6,$7*
1,1,$1+$1,$8,$9*
0 Add four rect primitives between the rounded corners*
20,1,$1+$1,$2,$3,$4,$5,0*
20,1,$1+$1,$4,$5,$6,$7,0*
20,1,$1+$1,$6,$7,$8,$9,0*
20,1,$1+$1,$8,$9,$2,$3,0*%
%AMFreePoly0*
4,1,17,1.371000,0.720000,0.950000,0.720000,0.950000,0.580000,1.370000,0.580000,1.370000,0.080000,0.950000,0.080000,0.950000,-0.080000,1.370000,-0.080000,1.370000,-0.580000,0.950000,-0.580000,0.950000,-0.720000,1.370000,-0.720000,1.370000,-1.225000,-0.950000,-1.225000,-0.950000,1.225000,1.371000,1.225000,1.371000,0.720000,1.371000,0.720000,$1*%
G04 Aperture macros list end*
%ADD10RoundRect,0.250000X-0.325000X-1.100000X0.325000X-1.100000X0.325000X1.100000X-0.325000X1.100000X0*%
%ADD11RoundRect,0.250000X-0.550000X1.412500X-0.550000X-1.412500X0.550000X-1.412500X0.550000X1.412500X0*%
%ADD12RoundRect,0.200000X0.200000X0.275000X-0.200000X0.275000X-0.200000X-0.275000X0.200000X-0.275000X0*%
%ADD13RoundRect,0.147500X0.172500X-0.147500X0.172500X0.147500X-0.172500X0.147500X-0.172500X-0.147500X0*%
%ADD14R,4.400000X1.800000*%
%ADD15O,4.000000X1.800000*%
%ADD16O,1.800000X4.000000*%
%ADD17RoundRect,0.250000X0.312500X0.625000X-0.312500X0.625000X-0.312500X-0.625000X0.312500X-0.625000X0*%
%ADD18RoundRect,0.225000X-0.225000X-0.250000X0.225000X-0.250000X0.225000X0.250000X-0.225000X0.250000X0*%
%ADD19RoundRect,0.125000X-0.190000X-0.125000X0.190000X-0.125000X0.190000X0.125000X-0.190000X0.125000X0*%
%ADD20FreePoly0,0.000000*%
%ADD21RoundRect,0.225000X0.225000X0.250000X-0.225000X0.250000X-0.225000X-0.250000X0.225000X-0.250000X0*%
%ADD22RoundRect,0.125000X-0.125000X0.190000X-0.125000X-0.190000X0.125000X-0.190000X0.125000X0.190000X0*%
%ADD23FreePoly0,270.000000*%
%ADD24RoundRect,0.225000X0.250000X-0.225000X0.250000X0.225000X-0.250000X0.225000X-0.250000X-0.225000X0*%
%ADD25RoundRect,0.250000X-0.540000X-3.000000X0.540000X-3.000000X0.540000X3.000000X-0.540000X3.000000X0*%
%ADD26RoundRect,0.062500X-0.375000X-0.062500X0.375000X-0.062500X0.375000X0.062500X-0.375000X0.062500X0*%
%ADD27RoundRect,0.062500X-0.062500X-0.375000X0.062500X-0.375000X0.062500X0.375000X-0.062500X0.375000X0*%
%ADD28R,1.600000X1.600000*%
%ADD29RoundRect,0.200000X0.275000X-0.200000X0.275000X0.200000X-0.275000X0.200000X-0.275000X-0.200000X0*%
%ADD30RoundRect,0.200000X-0.275000X0.200000X-0.275000X-0.200000X0.275000X-0.200000X0.275000X0.200000X0*%
%ADD31RoundRect,0.200000X-0.200000X-0.275000X0.200000X-0.275000X0.200000X0.275000X-0.200000X0.275000X0*%
%ADD32RoundRect,0.250000X-1.100000X0.325000X-1.100000X-0.325000X1.100000X-0.325000X1.100000X0.325000X0*%
G04 APERTURE END LIST*
D10*
%TO.C,C4*%
X139825000Y-71200000D03*
X142775000Y-71200000D03*
%TD*%
D11*
%TO.C,C5*%
X141450000Y-75000000D03*
X141450000Y-80074998D03*
%TD*%
D12*
%TO.C,R9*%
X144125000Y-67900000D03*
X142475000Y-67900000D03*
%TD*%
D13*
%TO.C,D1*%
X155300000Y-68585000D03*
X155300000Y-67615000D03*
%TD*%
D14*
%TO.C,J2*%
X150000000Y-68200000D03*
D15*
X150000000Y-74000000D03*
D16*
X154800000Y-71200000D03*
%TD*%
D17*
%TO.C,R3*%
X127962500Y-77400000D03*
X125037500Y-77400000D03*
%TD*%
D18*
%TO.C,C10*%
X127825000Y-70400000D03*
X129375000Y-70400000D03*
%TD*%
D19*
%TO.C,Q1*%
X134800000Y-70140001D03*
X134800000Y-70780001D03*
X134800000Y-71440001D03*
X134800000Y-72080001D03*
D20*
X136625000Y-71110001D03*
%TD*%
D21*
%TO.C,C1*%
X126975000Y-74000000D03*
X125425000Y-74000000D03*
%TD*%
D22*
%TO.C,Q2*%
X133159999Y-69600000D03*
X132519999Y-69600000D03*
X131859999Y-69600000D03*
X131219999Y-69600000D03*
D23*
X132189999Y-71425000D03*
%TD*%
D18*
%TO.C,C2*%
X127825000Y-68600000D03*
X129375000Y-68600000D03*
%TD*%
%TO.C,C9*%
X127825000Y-72200000D03*
X129375000Y-72200000D03*
%TD*%
D24*
%TO.C,C11*%
X116945160Y-69925000D03*
X116945160Y-68375000D03*
%TD*%
D25*
%TO.C,L1*%
X131240000Y-77600000D03*
X135760000Y-77600000D03*
%TD*%
D26*
%TO.C,U1*%
X123362500Y-69450000D03*
X123362500Y-69950000D03*
X123362500Y-70450000D03*
X123362500Y-70950000D03*
D27*
X124050000Y-71637500D03*
X124550000Y-71637500D03*
X125050000Y-71637500D03*
X125550000Y-71637500D03*
D26*
X126237500Y-70950000D03*
X126237500Y-70450000D03*
X126237500Y-69950000D03*
X126237500Y-69450000D03*
D27*
X125550000Y-68762500D03*
X125050000Y-68762500D03*
X124550000Y-68762500D03*
X124050000Y-68762500D03*
D28*
X124800000Y-70200000D03*
%TD*%
D29*
%TO.C,R8*%
X121745160Y-69975000D03*
X121745160Y-68325000D03*
%TD*%
D30*
%TO.C,R4*%
X113745160Y-68330266D03*
X113745160Y-69980266D03*
%TD*%
D14*
%TO.C,J1*%
X106400000Y-68250000D03*
D15*
X106400000Y-74050000D03*
D16*
X111200000Y-71250000D03*
%TD*%
D24*
%TO.C,C12*%
X118545160Y-69925000D03*
X118545160Y-68375000D03*
%TD*%
%TO.C,C13*%
X120145160Y-69925000D03*
X120145160Y-68375000D03*
%TD*%
D30*
%TO.C,R1*%
X123900000Y-73775000D03*
X123900000Y-75425000D03*
%TD*%
D31*
%TO.C,R7*%
X116775000Y-71572508D03*
X118425000Y-71572508D03*
%TD*%
D32*
%TO.C,C8*%
X115250000Y-77774999D03*
X115250000Y-80725001D03*
%TD*%
%TO.C,C6*%
X122250000Y-77750000D03*
X122250000Y-80700002D03*
%TD*%
D30*
%TO.C,R2*%
X128500000Y-73775000D03*
X128500000Y-75425000D03*
%TD*%
D17*
%TO.C,R5*%
X127962500Y-80000000D03*
X125037500Y-80000000D03*
%TD*%
D32*
%TO.C,C7*%
X118750000Y-77774999D03*
X118750000Y-80725001D03*
%TD*%
D29*
%TO.C,R6*%
X115345160Y-69975000D03*
X115345160Y-68325000D03*
%TD*%
M02*
