%TF.GenerationSoftware,KiCad,Pcbnew,9.0.1*%
%TF.CreationDate,2025-07-19T16:42:16+10:00*%
%TF.ProjectId,starlink-apo-pcb,73746172-6c69-46e6-9b2d-61706f2d7063,rev?*%
%TF.SameCoordinates,Original*%
%TF.FileFunction,Legend,Top*%
%TF.FilePolarity,Positive*%
%FSLAX46Y46*%
G04 Gerber Fmt 4.6, Leading zero omitted, Abs format (unit mm)*
G04 Created by KiCad (PCBNEW 9.0.1) date 2025-07-19 16:42:16*
%MOMM*%
%LPD*%
G01*
G04 APERTURE LIST*
G04 Aperture macros list*
%AMRoundRect*
0 Rectangle with rounded corners*
0 $1 Rounding radius*
0 $2 $3 $4 $5 $6 $7 $8 $9 X,Y pos of 4 corners*
0 Add a 4 corners polygon primitive as box body*
4,1,4,$2,$3,$4,$5,$6,$7,$8,$9,$2,$3,0*
0 Add four circle primitives for the rounded corners*
1,1,$1+$1,$2,$3*
1,1,$1+$1,$4,$5*
1,1,$1+$1,$6,$7*
1,1,$1+$1,$8,$9*
0 Add four rect primitives between the rounded corners*
20,1,$1+$1,$2,$3,$4,$5,0*
20,1,$1+$1,$4,$5,$6,$7,0*
20,1,$1+$1,$6,$7,$8,$9,0*
20,1,$1+$1,$8,$9,$2,$3,0*%
%AMFreePoly0*
4,1,17,1.371000,0.720000,0.950000,0.720000,0.950000,0.580000,1.370000,0.580000,1.370000,0.080000,0.950000,0.080000,0.950000,-0.080000,1.370000,-0.080000,1.370000,-0.580000,0.950000,-0.580000,0.950000,-0.720000,1.370000,-0.720000,1.370000,-1.225000,-0.950000,-1.225000,-0.950000,1.225000,1.371000,1.225000,1.371000,0.720000,1.371000,0.720000,$1*%
G04 Aperture macros list end*
%ADD10C,0.100000*%
%ADD11C,0.150000*%
%ADD12C,0.120000*%
%ADD13C,0.000000*%
%ADD14RoundRect,0.250000X-0.325000X-1.100000X0.325000X-1.100000X0.325000X1.100000X-0.325000X1.100000X0*%
%ADD15RoundRect,0.250000X-0.550000X1.412500X-0.550000X-1.412500X0.550000X-1.412500X0.550000X1.412500X0*%
%ADD16RoundRect,0.200000X0.200000X0.275000X-0.200000X0.275000X-0.200000X-0.275000X0.200000X-0.275000X0*%
%ADD17RoundRect,0.147500X0.172500X-0.147500X0.172500X0.147500X-0.172500X0.147500X-0.172500X-0.147500X0*%
%ADD18R,4.400000X1.800000*%
%ADD19O,4.000000X1.800000*%
%ADD20O,1.800000X4.000000*%
%ADD21RoundRect,0.250000X0.312500X0.625000X-0.312500X0.625000X-0.312500X-0.625000X0.312500X-0.625000X0*%
%ADD22RoundRect,0.225000X-0.225000X-0.250000X0.225000X-0.250000X0.225000X0.250000X-0.225000X0.250000X0*%
%ADD23RoundRect,0.125000X-0.190000X-0.125000X0.190000X-0.125000X0.190000X0.125000X-0.190000X0.125000X0*%
%ADD24FreePoly0,0.000000*%
%ADD25RoundRect,0.225000X0.225000X0.250000X-0.225000X0.250000X-0.225000X-0.250000X0.225000X-0.250000X0*%
%ADD26RoundRect,0.125000X-0.125000X0.190000X-0.125000X-0.190000X0.125000X-0.190000X0.125000X0.190000X0*%
%ADD27FreePoly0,270.000000*%
%ADD28RoundRect,0.225000X0.250000X-0.225000X0.250000X0.225000X-0.250000X0.225000X-0.250000X-0.225000X0*%
%ADD29RoundRect,0.250000X-0.540000X-3.000000X0.540000X-3.000000X0.540000X3.000000X-0.540000X3.000000X0*%
%ADD30RoundRect,0.062500X-0.375000X-0.062500X0.375000X-0.062500X0.375000X0.062500X-0.375000X0.062500X0*%
%ADD31RoundRect,0.062500X-0.062500X-0.375000X0.062500X-0.375000X0.062500X0.375000X-0.062500X0.375000X0*%
%ADD32R,1.600000X1.600000*%
%ADD33RoundRect,0.200000X0.275000X-0.200000X0.275000X0.200000X-0.275000X0.200000X-0.275000X-0.200000X0*%
%ADD34RoundRect,0.200000X-0.275000X0.200000X-0.275000X-0.200000X0.275000X-0.200000X0.275000X0.200000X0*%
%ADD35RoundRect,0.200000X-0.200000X-0.275000X0.200000X-0.275000X0.200000X0.275000X-0.200000X0.275000X0*%
%ADD36RoundRect,0.250000X-1.100000X0.325000X-1.100000X-0.325000X1.100000X-0.325000X1.100000X0.325000X0*%
G04 APERTURE END LIST*
D10*
X119218169Y-73582890D02*
X119332455Y-73620985D01*
X119332455Y-73620985D02*
X119522931Y-73620985D01*
X119522931Y-73620985D02*
X119599122Y-73582890D01*
X119599122Y-73582890D02*
X119637217Y-73544794D01*
X119637217Y-73544794D02*
X119675312Y-73468604D01*
X119675312Y-73468604D02*
X119675312Y-73392413D01*
X119675312Y-73392413D02*
X119637217Y-73316223D01*
X119637217Y-73316223D02*
X119599122Y-73278128D01*
X119599122Y-73278128D02*
X119522931Y-73240032D01*
X119522931Y-73240032D02*
X119370550Y-73201937D01*
X119370550Y-73201937D02*
X119294360Y-73163842D01*
X119294360Y-73163842D02*
X119256265Y-73125747D01*
X119256265Y-73125747D02*
X119218169Y-73049556D01*
X119218169Y-73049556D02*
X119218169Y-72973366D01*
X119218169Y-72973366D02*
X119256265Y-72897175D01*
X119256265Y-72897175D02*
X119294360Y-72859080D01*
X119294360Y-72859080D02*
X119370550Y-72820985D01*
X119370550Y-72820985D02*
X119561027Y-72820985D01*
X119561027Y-72820985D02*
X119675312Y-72859080D01*
X119980074Y-73392413D02*
X120361027Y-73392413D01*
X119903884Y-73620985D02*
X120170551Y-72820985D01*
X120170551Y-72820985D02*
X120437217Y-73620985D01*
X120703884Y-73620985D02*
X120703884Y-72820985D01*
X120703884Y-72820985D02*
X121008646Y-72820985D01*
X121008646Y-72820985D02*
X121084836Y-72859080D01*
X121084836Y-72859080D02*
X121122931Y-72897175D01*
X121122931Y-72897175D02*
X121161027Y-72973366D01*
X121161027Y-72973366D02*
X121161027Y-73087651D01*
X121161027Y-73087651D02*
X121122931Y-73163842D01*
X121122931Y-73163842D02*
X121084836Y-73201937D01*
X121084836Y-73201937D02*
X121008646Y-73240032D01*
X121008646Y-73240032D02*
X120703884Y-73240032D01*
X121656265Y-72820985D02*
X121808646Y-72820985D01*
X121808646Y-72820985D02*
X121884836Y-72859080D01*
X121884836Y-72859080D02*
X121961027Y-72935270D01*
X121961027Y-72935270D02*
X121999122Y-73087651D01*
X121999122Y-73087651D02*
X121999122Y-73354318D01*
X121999122Y-73354318D02*
X121961027Y-73506699D01*
X121961027Y-73506699D02*
X121884836Y-73582890D01*
X121884836Y-73582890D02*
X121808646Y-73620985D01*
X121808646Y-73620985D02*
X121656265Y-73620985D01*
X121656265Y-73620985D02*
X121580074Y-73582890D01*
X121580074Y-73582890D02*
X121503884Y-73506699D01*
X121503884Y-73506699D02*
X121465788Y-73354318D01*
X121465788Y-73354318D02*
X121465788Y-73087651D01*
X121465788Y-73087651D02*
X121503884Y-72935270D01*
X121503884Y-72935270D02*
X121580074Y-72859080D01*
X121580074Y-72859080D02*
X121656265Y-72820985D01*
X119256265Y-74908940D02*
X119256265Y-74108940D01*
X119256265Y-74108940D02*
X119446741Y-74108940D01*
X119446741Y-74108940D02*
X119561027Y-74147035D01*
X119561027Y-74147035D02*
X119637217Y-74223225D01*
X119637217Y-74223225D02*
X119675312Y-74299416D01*
X119675312Y-74299416D02*
X119713408Y-74451797D01*
X119713408Y-74451797D02*
X119713408Y-74566083D01*
X119713408Y-74566083D02*
X119675312Y-74718464D01*
X119675312Y-74718464D02*
X119637217Y-74794654D01*
X119637217Y-74794654D02*
X119561027Y-74870845D01*
X119561027Y-74870845D02*
X119446741Y-74908940D01*
X119446741Y-74908940D02*
X119256265Y-74908940D01*
X120513408Y-74832749D02*
X120475312Y-74870845D01*
X120475312Y-74870845D02*
X120361027Y-74908940D01*
X120361027Y-74908940D02*
X120284836Y-74908940D01*
X120284836Y-74908940D02*
X120170550Y-74870845D01*
X120170550Y-74870845D02*
X120094360Y-74794654D01*
X120094360Y-74794654D02*
X120056265Y-74718464D01*
X120056265Y-74718464D02*
X120018169Y-74566083D01*
X120018169Y-74566083D02*
X120018169Y-74451797D01*
X120018169Y-74451797D02*
X120056265Y-74299416D01*
X120056265Y-74299416D02*
X120094360Y-74223225D01*
X120094360Y-74223225D02*
X120170550Y-74147035D01*
X120170550Y-74147035D02*
X120284836Y-74108940D01*
X120284836Y-74108940D02*
X120361027Y-74108940D01*
X120361027Y-74108940D02*
X120475312Y-74147035D01*
X120475312Y-74147035D02*
X120513408Y-74185130D01*
X120856265Y-74604178D02*
X121465789Y-74604178D01*
X121846741Y-74908940D02*
X121846741Y-74108940D01*
X121846741Y-74108940D02*
X122037217Y-74108940D01*
X122037217Y-74108940D02*
X122151503Y-74147035D01*
X122151503Y-74147035D02*
X122227693Y-74223225D01*
X122227693Y-74223225D02*
X122265788Y-74299416D01*
X122265788Y-74299416D02*
X122303884Y-74451797D01*
X122303884Y-74451797D02*
X122303884Y-74566083D01*
X122303884Y-74566083D02*
X122265788Y-74718464D01*
X122265788Y-74718464D02*
X122227693Y-74794654D01*
X122227693Y-74794654D02*
X122151503Y-74870845D01*
X122151503Y-74870845D02*
X122037217Y-74908940D01*
X122037217Y-74908940D02*
X121846741Y-74908940D01*
X123103884Y-74832749D02*
X123065788Y-74870845D01*
X123065788Y-74870845D02*
X122951503Y-74908940D01*
X122951503Y-74908940D02*
X122875312Y-74908940D01*
X122875312Y-74908940D02*
X122761026Y-74870845D01*
X122761026Y-74870845D02*
X122684836Y-74794654D01*
X122684836Y-74794654D02*
X122646741Y-74718464D01*
X122646741Y-74718464D02*
X122608645Y-74566083D01*
X122608645Y-74566083D02*
X122608645Y-74451797D01*
X122608645Y-74451797D02*
X122646741Y-74299416D01*
X122646741Y-74299416D02*
X122684836Y-74223225D01*
X122684836Y-74223225D02*
X122761026Y-74147035D01*
X122761026Y-74147035D02*
X122875312Y-74108940D01*
X122875312Y-74108940D02*
X122951503Y-74108940D01*
X122951503Y-74108940D02*
X123065788Y-74147035D01*
X123065788Y-74147035D02*
X123103884Y-74185130D01*
X119180074Y-75663561D02*
X119370550Y-76196895D01*
X119370550Y-76196895D02*
X119561027Y-75663561D01*
X120018170Y-75396895D02*
X120094360Y-75396895D01*
X120094360Y-75396895D02*
X120170551Y-75434990D01*
X120170551Y-75434990D02*
X120208646Y-75473085D01*
X120208646Y-75473085D02*
X120246741Y-75549276D01*
X120246741Y-75549276D02*
X120284836Y-75701657D01*
X120284836Y-75701657D02*
X120284836Y-75892133D01*
X120284836Y-75892133D02*
X120246741Y-76044514D01*
X120246741Y-76044514D02*
X120208646Y-76120704D01*
X120208646Y-76120704D02*
X120170551Y-76158800D01*
X120170551Y-76158800D02*
X120094360Y-76196895D01*
X120094360Y-76196895D02*
X120018170Y-76196895D01*
X120018170Y-76196895D02*
X119941979Y-76158800D01*
X119941979Y-76158800D02*
X119903884Y-76120704D01*
X119903884Y-76120704D02*
X119865789Y-76044514D01*
X119865789Y-76044514D02*
X119827693Y-75892133D01*
X119827693Y-75892133D02*
X119827693Y-75701657D01*
X119827693Y-75701657D02*
X119865789Y-75549276D01*
X119865789Y-75549276D02*
X119903884Y-75473085D01*
X119903884Y-75473085D02*
X119941979Y-75434990D01*
X119941979Y-75434990D02*
X120018170Y-75396895D01*
X120627694Y-76120704D02*
X120665789Y-76158800D01*
X120665789Y-76158800D02*
X120627694Y-76196895D01*
X120627694Y-76196895D02*
X120589598Y-76158800D01*
X120589598Y-76158800D02*
X120627694Y-76120704D01*
X120627694Y-76120704D02*
X120627694Y-76196895D01*
X121161027Y-75396895D02*
X121237217Y-75396895D01*
X121237217Y-75396895D02*
X121313408Y-75434990D01*
X121313408Y-75434990D02*
X121351503Y-75473085D01*
X121351503Y-75473085D02*
X121389598Y-75549276D01*
X121389598Y-75549276D02*
X121427693Y-75701657D01*
X121427693Y-75701657D02*
X121427693Y-75892133D01*
X121427693Y-75892133D02*
X121389598Y-76044514D01*
X121389598Y-76044514D02*
X121351503Y-76120704D01*
X121351503Y-76120704D02*
X121313408Y-76158800D01*
X121313408Y-76158800D02*
X121237217Y-76196895D01*
X121237217Y-76196895D02*
X121161027Y-76196895D01*
X121161027Y-76196895D02*
X121084836Y-76158800D01*
X121084836Y-76158800D02*
X121046741Y-76120704D01*
X121046741Y-76120704D02*
X121008646Y-76044514D01*
X121008646Y-76044514D02*
X120970550Y-75892133D01*
X120970550Y-75892133D02*
X120970550Y-75701657D01*
X120970550Y-75701657D02*
X121008646Y-75549276D01*
X121008646Y-75549276D02*
X121046741Y-75473085D01*
X121046741Y-75473085D02*
X121084836Y-75434990D01*
X121084836Y-75434990D02*
X121161027Y-75396895D01*
X121770551Y-76120704D02*
X121808646Y-76158800D01*
X121808646Y-76158800D02*
X121770551Y-76196895D01*
X121770551Y-76196895D02*
X121732455Y-76158800D01*
X121732455Y-76158800D02*
X121770551Y-76120704D01*
X121770551Y-76120704D02*
X121770551Y-76196895D01*
X122570550Y-76196895D02*
X122113407Y-76196895D01*
X122341979Y-76196895D02*
X122341979Y-75396895D01*
X122341979Y-75396895D02*
X122265788Y-75511180D01*
X122265788Y-75511180D02*
X122189598Y-75587371D01*
X122189598Y-75587371D02*
X122113407Y-75625466D01*
X141344360Y-68572419D02*
X141534836Y-68572419D01*
X141534836Y-68572419D02*
X141630074Y-68620038D01*
X141630074Y-68620038D02*
X141725312Y-68715276D01*
X141725312Y-68715276D02*
X141772931Y-68905752D01*
X141772931Y-68905752D02*
X141772931Y-69239085D01*
X141772931Y-69239085D02*
X141725312Y-69429561D01*
X141725312Y-69429561D02*
X141630074Y-69524800D01*
X141630074Y-69524800D02*
X141534836Y-69572419D01*
X141534836Y-69572419D02*
X141344360Y-69572419D01*
X141344360Y-69572419D02*
X141249122Y-69524800D01*
X141249122Y-69524800D02*
X141153884Y-69429561D01*
X141153884Y-69429561D02*
X141106265Y-69239085D01*
X141106265Y-69239085D02*
X141106265Y-68905752D01*
X141106265Y-68905752D02*
X141153884Y-68715276D01*
X141153884Y-68715276D02*
X141249122Y-68620038D01*
X141249122Y-68620038D02*
X141344360Y-68572419D01*
X142201503Y-68572419D02*
X142201503Y-69381942D01*
X142201503Y-69381942D02*
X142249122Y-69477180D01*
X142249122Y-69477180D02*
X142296741Y-69524800D01*
X142296741Y-69524800D02*
X142391979Y-69572419D01*
X142391979Y-69572419D02*
X142582455Y-69572419D01*
X142582455Y-69572419D02*
X142677693Y-69524800D01*
X142677693Y-69524800D02*
X142725312Y-69477180D01*
X142725312Y-69477180D02*
X142772931Y-69381942D01*
X142772931Y-69381942D02*
X142772931Y-68572419D01*
X143106265Y-68572419D02*
X143677693Y-68572419D01*
X143391979Y-69572419D02*
X143391979Y-68572419D01*
X144011027Y-68905752D02*
X144772932Y-69191466D01*
X144772932Y-69191466D02*
X144011027Y-69477180D01*
X111627580Y-74101503D02*
X111627580Y-74291979D01*
X111627580Y-74291979D02*
X111675200Y-74387217D01*
X111675200Y-74387217D02*
X111722819Y-74434836D01*
X111722819Y-74434836D02*
X111865676Y-74530074D01*
X111865676Y-74530074D02*
X112056152Y-74577693D01*
X112056152Y-74577693D02*
X112437104Y-74577693D01*
X112437104Y-74577693D02*
X112532342Y-74530074D01*
X112532342Y-74530074D02*
X112579961Y-74482455D01*
X112579961Y-74482455D02*
X112627580Y-74387217D01*
X112627580Y-74387217D02*
X112627580Y-74196741D01*
X112627580Y-74196741D02*
X112579961Y-74101503D01*
X112579961Y-74101503D02*
X112532342Y-74053884D01*
X112532342Y-74053884D02*
X112437104Y-74006265D01*
X112437104Y-74006265D02*
X112199009Y-74006265D01*
X112199009Y-74006265D02*
X112103771Y-74053884D01*
X112103771Y-74053884D02*
X112056152Y-74101503D01*
X112056152Y-74101503D02*
X112008533Y-74196741D01*
X112008533Y-74196741D02*
X112008533Y-74387217D01*
X112008533Y-74387217D02*
X112056152Y-74482455D01*
X112056152Y-74482455D02*
X112103771Y-74530074D01*
X112103771Y-74530074D02*
X112199009Y-74577693D01*
X112008533Y-75006265D02*
X112008533Y-75768170D01*
X112627580Y-76149122D02*
X112627580Y-76768169D01*
X112627580Y-76768169D02*
X112246628Y-76434836D01*
X112246628Y-76434836D02*
X112246628Y-76577693D01*
X112246628Y-76577693D02*
X112199009Y-76672931D01*
X112199009Y-76672931D02*
X112151390Y-76720550D01*
X112151390Y-76720550D02*
X112056152Y-76768169D01*
X112056152Y-76768169D02*
X111818057Y-76768169D01*
X111818057Y-76768169D02*
X111722819Y-76720550D01*
X111722819Y-76720550D02*
X111675200Y-76672931D01*
X111675200Y-76672931D02*
X111627580Y-76577693D01*
X111627580Y-76577693D02*
X111627580Y-76291979D01*
X111627580Y-76291979D02*
X111675200Y-76196741D01*
X111675200Y-76196741D02*
X111722819Y-76149122D01*
X112627580Y-77672931D02*
X112627580Y-77196741D01*
X112627580Y-77196741D02*
X112151390Y-77149122D01*
X112151390Y-77149122D02*
X112199009Y-77196741D01*
X112199009Y-77196741D02*
X112246628Y-77291979D01*
X112246628Y-77291979D02*
X112246628Y-77530074D01*
X112246628Y-77530074D02*
X112199009Y-77625312D01*
X112199009Y-77625312D02*
X112151390Y-77672931D01*
X112151390Y-77672931D02*
X112056152Y-77720550D01*
X112056152Y-77720550D02*
X111818057Y-77720550D01*
X111818057Y-77720550D02*
X111722819Y-77672931D01*
X111722819Y-77672931D02*
X111675200Y-77625312D01*
X111675200Y-77625312D02*
X111627580Y-77530074D01*
X111627580Y-77530074D02*
X111627580Y-77291979D01*
X111627580Y-77291979D02*
X111675200Y-77196741D01*
X111675200Y-77196741D02*
X111722819Y-77149122D01*
X112627580Y-78006265D02*
X111627580Y-78339598D01*
X111627580Y-78339598D02*
X112627580Y-78672931D01*
X111627580Y-79768170D02*
X112627580Y-79768170D01*
X112627580Y-79768170D02*
X112627580Y-80006265D01*
X112627580Y-80006265D02*
X112579961Y-80149122D01*
X112579961Y-80149122D02*
X112484723Y-80244360D01*
X112484723Y-80244360D02*
X112389485Y-80291979D01*
X112389485Y-80291979D02*
X112199009Y-80339598D01*
X112199009Y-80339598D02*
X112056152Y-80339598D01*
X112056152Y-80339598D02*
X111865676Y-80291979D01*
X111865676Y-80291979D02*
X111770438Y-80244360D01*
X111770438Y-80244360D02*
X111675200Y-80149122D01*
X111675200Y-80149122D02*
X111627580Y-80006265D01*
X111627580Y-80006265D02*
X111627580Y-79768170D01*
X111722819Y-81339598D02*
X111675200Y-81291979D01*
X111675200Y-81291979D02*
X111627580Y-81149122D01*
X111627580Y-81149122D02*
X111627580Y-81053884D01*
X111627580Y-81053884D02*
X111675200Y-80911027D01*
X111675200Y-80911027D02*
X111770438Y-80815789D01*
X111770438Y-80815789D02*
X111865676Y-80768170D01*
X111865676Y-80768170D02*
X112056152Y-80720551D01*
X112056152Y-80720551D02*
X112199009Y-80720551D01*
X112199009Y-80720551D02*
X112389485Y-80768170D01*
X112389485Y-80768170D02*
X112484723Y-80815789D01*
X112484723Y-80815789D02*
X112579961Y-80911027D01*
X112579961Y-80911027D02*
X112627580Y-81053884D01*
X112627580Y-81053884D02*
X112627580Y-81149122D01*
X112627580Y-81149122D02*
X112579961Y-81291979D01*
X112579961Y-81291979D02*
X112532342Y-81339598D01*
X155775557Y-73408646D02*
X155811271Y-73444360D01*
X155811271Y-73444360D02*
X155846985Y-73515789D01*
X155846985Y-73515789D02*
X155846985Y-73694360D01*
X155846985Y-73694360D02*
X155811271Y-73765789D01*
X155811271Y-73765789D02*
X155775557Y-73801503D01*
X155775557Y-73801503D02*
X155704128Y-73837217D01*
X155704128Y-73837217D02*
X155632700Y-73837217D01*
X155632700Y-73837217D02*
X155525557Y-73801503D01*
X155525557Y-73801503D02*
X155096985Y-73372931D01*
X155096985Y-73372931D02*
X155096985Y-73837217D01*
X155846985Y-74515789D02*
X155846985Y-74158646D01*
X155846985Y-74158646D02*
X155489842Y-74122932D01*
X155489842Y-74122932D02*
X155525557Y-74158646D01*
X155525557Y-74158646D02*
X155561271Y-74230075D01*
X155561271Y-74230075D02*
X155561271Y-74408646D01*
X155561271Y-74408646D02*
X155525557Y-74480075D01*
X155525557Y-74480075D02*
X155489842Y-74515789D01*
X155489842Y-74515789D02*
X155418414Y-74551503D01*
X155418414Y-74551503D02*
X155239842Y-74551503D01*
X155239842Y-74551503D02*
X155168414Y-74515789D01*
X155168414Y-74515789D02*
X155132700Y-74480075D01*
X155132700Y-74480075D02*
X155096985Y-74408646D01*
X155096985Y-74408646D02*
X155096985Y-74230075D01*
X155096985Y-74230075D02*
X155132700Y-74158646D01*
X155132700Y-74158646D02*
X155168414Y-74122932D01*
X155846985Y-74765789D02*
X155096985Y-75015789D01*
X155096985Y-75015789D02*
X155846985Y-75265789D01*
X155775557Y-76051504D02*
X155811271Y-76087218D01*
X155811271Y-76087218D02*
X155846985Y-76158647D01*
X155846985Y-76158647D02*
X155846985Y-76337218D01*
X155846985Y-76337218D02*
X155811271Y-76408647D01*
X155811271Y-76408647D02*
X155775557Y-76444361D01*
X155775557Y-76444361D02*
X155704128Y-76480075D01*
X155704128Y-76480075D02*
X155632700Y-76480075D01*
X155632700Y-76480075D02*
X155525557Y-76444361D01*
X155525557Y-76444361D02*
X155096985Y-76015789D01*
X155096985Y-76015789D02*
X155096985Y-76480075D01*
X155168414Y-76801504D02*
X155132700Y-76837218D01*
X155132700Y-76837218D02*
X155096985Y-76801504D01*
X155096985Y-76801504D02*
X155132700Y-76765790D01*
X155132700Y-76765790D02*
X155168414Y-76801504D01*
X155168414Y-76801504D02*
X155096985Y-76801504D01*
X155846985Y-77515790D02*
X155846985Y-77158647D01*
X155846985Y-77158647D02*
X155489842Y-77122933D01*
X155489842Y-77122933D02*
X155525557Y-77158647D01*
X155525557Y-77158647D02*
X155561271Y-77230076D01*
X155561271Y-77230076D02*
X155561271Y-77408647D01*
X155561271Y-77408647D02*
X155525557Y-77480076D01*
X155525557Y-77480076D02*
X155489842Y-77515790D01*
X155489842Y-77515790D02*
X155418414Y-77551504D01*
X155418414Y-77551504D02*
X155239842Y-77551504D01*
X155239842Y-77551504D02*
X155168414Y-77515790D01*
X155168414Y-77515790D02*
X155132700Y-77480076D01*
X155132700Y-77480076D02*
X155096985Y-77408647D01*
X155096985Y-77408647D02*
X155096985Y-77230076D01*
X155096985Y-77230076D02*
X155132700Y-77158647D01*
X155132700Y-77158647D02*
X155168414Y-77122933D01*
X155311271Y-77837219D02*
X155311271Y-78194362D01*
X155096985Y-77765790D02*
X155846985Y-78015790D01*
X155846985Y-78015790D02*
X155096985Y-78265790D01*
X154811271Y-79301505D02*
X154846985Y-79265790D01*
X154846985Y-79265790D02*
X154954128Y-79194362D01*
X154954128Y-79194362D02*
X155025557Y-79158648D01*
X155025557Y-79158648D02*
X155132700Y-79122933D01*
X155132700Y-79122933D02*
X155311271Y-79087219D01*
X155311271Y-79087219D02*
X155454128Y-79087219D01*
X155454128Y-79087219D02*
X155632700Y-79122933D01*
X155632700Y-79122933D02*
X155739842Y-79158648D01*
X155739842Y-79158648D02*
X155811271Y-79194362D01*
X155811271Y-79194362D02*
X155918414Y-79265790D01*
X155918414Y-79265790D02*
X155954128Y-79301505D01*
X155846985Y-79908648D02*
X155846985Y-79765790D01*
X155846985Y-79765790D02*
X155811271Y-79694362D01*
X155811271Y-79694362D02*
X155775557Y-79658648D01*
X155775557Y-79658648D02*
X155668414Y-79587219D01*
X155668414Y-79587219D02*
X155525557Y-79551505D01*
X155525557Y-79551505D02*
X155239842Y-79551505D01*
X155239842Y-79551505D02*
X155168414Y-79587219D01*
X155168414Y-79587219D02*
X155132700Y-79622933D01*
X155132700Y-79622933D02*
X155096985Y-79694362D01*
X155096985Y-79694362D02*
X155096985Y-79837219D01*
X155096985Y-79837219D02*
X155132700Y-79908648D01*
X155132700Y-79908648D02*
X155168414Y-79944362D01*
X155168414Y-79944362D02*
X155239842Y-79980076D01*
X155239842Y-79980076D02*
X155418414Y-79980076D01*
X155418414Y-79980076D02*
X155489842Y-79944362D01*
X155489842Y-79944362D02*
X155525557Y-79908648D01*
X155525557Y-79908648D02*
X155561271Y-79837219D01*
X155561271Y-79837219D02*
X155561271Y-79694362D01*
X155561271Y-79694362D02*
X155525557Y-79622933D01*
X155525557Y-79622933D02*
X155489842Y-79587219D01*
X155489842Y-79587219D02*
X155418414Y-79551505D01*
X155775557Y-80265791D02*
X155811271Y-80301505D01*
X155811271Y-80301505D02*
X155846985Y-80372934D01*
X155846985Y-80372934D02*
X155846985Y-80551505D01*
X155846985Y-80551505D02*
X155811271Y-80622934D01*
X155811271Y-80622934D02*
X155775557Y-80658648D01*
X155775557Y-80658648D02*
X155704128Y-80694362D01*
X155704128Y-80694362D02*
X155632700Y-80694362D01*
X155632700Y-80694362D02*
X155525557Y-80658648D01*
X155525557Y-80658648D02*
X155096985Y-80230076D01*
X155096985Y-80230076D02*
X155096985Y-80694362D01*
X155846985Y-80944362D02*
X155096985Y-81122934D01*
X155096985Y-81122934D02*
X155632700Y-81265791D01*
X155632700Y-81265791D02*
X155096985Y-81408648D01*
X155096985Y-81408648D02*
X155846985Y-81587220D01*
X154811271Y-81801505D02*
X154846985Y-81837220D01*
X154846985Y-81837220D02*
X154954128Y-81908648D01*
X154954128Y-81908648D02*
X155025557Y-81944363D01*
X155025557Y-81944363D02*
X155132700Y-81980077D01*
X155132700Y-81980077D02*
X155311271Y-82015791D01*
X155311271Y-82015791D02*
X155454128Y-82015791D01*
X155454128Y-82015791D02*
X155632700Y-81980077D01*
X155632700Y-81980077D02*
X155739842Y-81944363D01*
X155739842Y-81944363D02*
X155811271Y-81908648D01*
X155811271Y-81908648D02*
X155918414Y-81837220D01*
X155918414Y-81837220D02*
X155954128Y-81801505D01*
X113565789Y-75105752D02*
X112803884Y-75391466D01*
X112803884Y-75391466D02*
X113565789Y-75677180D01*
X114041979Y-75772419D02*
X114041979Y-74772419D01*
X114518169Y-75772419D02*
X114518169Y-74772419D01*
X114518169Y-74772419D02*
X115089597Y-75772419D01*
X115089597Y-75772419D02*
X115089597Y-74772419D01*
X96357419Y-77690577D02*
X96357419Y-78262005D01*
X96357419Y-77976291D02*
X95357419Y-77976291D01*
X95357419Y-77976291D02*
X95500276Y-78071529D01*
X95500276Y-78071529D02*
X95595514Y-78166767D01*
X95595514Y-78166767D02*
X95643133Y-78262005D01*
X95357419Y-76785815D02*
X95357419Y-77262005D01*
X95357419Y-77262005D02*
X95833609Y-77309624D01*
X95833609Y-77309624D02*
X95785990Y-77262005D01*
X95785990Y-77262005D02*
X95738371Y-77166767D01*
X95738371Y-77166767D02*
X95738371Y-76928672D01*
X95738371Y-76928672D02*
X95785990Y-76833434D01*
X95785990Y-76833434D02*
X95833609Y-76785815D01*
X95833609Y-76785815D02*
X95928847Y-76738196D01*
X95928847Y-76738196D02*
X96166942Y-76738196D01*
X96166942Y-76738196D02*
X96262180Y-76785815D01*
X96262180Y-76785815D02*
X96309800Y-76833434D01*
X96309800Y-76833434D02*
X96357419Y-76928672D01*
X96357419Y-76928672D02*
X96357419Y-77166767D01*
X96357419Y-77166767D02*
X96309800Y-77262005D01*
X96309800Y-77262005D02*
X96262180Y-77309624D01*
X96262180Y-76309624D02*
X96309800Y-76262005D01*
X96309800Y-76262005D02*
X96357419Y-76309624D01*
X96357419Y-76309624D02*
X96309800Y-76357243D01*
X96309800Y-76357243D02*
X96262180Y-76309624D01*
X96262180Y-76309624D02*
X96357419Y-76309624D01*
X95357419Y-75357244D02*
X95357419Y-75833434D01*
X95357419Y-75833434D02*
X95833609Y-75881053D01*
X95833609Y-75881053D02*
X95785990Y-75833434D01*
X95785990Y-75833434D02*
X95738371Y-75738196D01*
X95738371Y-75738196D02*
X95738371Y-75500101D01*
X95738371Y-75500101D02*
X95785990Y-75404863D01*
X95785990Y-75404863D02*
X95833609Y-75357244D01*
X95833609Y-75357244D02*
X95928847Y-75309625D01*
X95928847Y-75309625D02*
X96166942Y-75309625D01*
X96166942Y-75309625D02*
X96262180Y-75357244D01*
X96262180Y-75357244D02*
X96309800Y-75404863D01*
X96309800Y-75404863D02*
X96357419Y-75500101D01*
X96357419Y-75500101D02*
X96357419Y-75738196D01*
X96357419Y-75738196D02*
X96309800Y-75833434D01*
X96309800Y-75833434D02*
X96262180Y-75881053D01*
X95357419Y-74690577D02*
X95357419Y-74595339D01*
X95357419Y-74595339D02*
X95405038Y-74500101D01*
X95405038Y-74500101D02*
X95452657Y-74452482D01*
X95452657Y-74452482D02*
X95547895Y-74404863D01*
X95547895Y-74404863D02*
X95738371Y-74357244D01*
X95738371Y-74357244D02*
X95976466Y-74357244D01*
X95976466Y-74357244D02*
X96166942Y-74404863D01*
X96166942Y-74404863D02*
X96262180Y-74452482D01*
X96262180Y-74452482D02*
X96309800Y-74500101D01*
X96309800Y-74500101D02*
X96357419Y-74595339D01*
X96357419Y-74595339D02*
X96357419Y-74690577D01*
X96357419Y-74690577D02*
X96309800Y-74785815D01*
X96309800Y-74785815D02*
X96262180Y-74833434D01*
X96262180Y-74833434D02*
X96166942Y-74881053D01*
X96166942Y-74881053D02*
X95976466Y-74928672D01*
X95976466Y-74928672D02*
X95738371Y-74928672D01*
X95738371Y-74928672D02*
X95547895Y-74881053D01*
X95547895Y-74881053D02*
X95452657Y-74833434D01*
X95452657Y-74833434D02*
X95405038Y-74785815D01*
X95405038Y-74785815D02*
X95357419Y-74690577D01*
X95357419Y-73738196D02*
X95357419Y-73642958D01*
X95357419Y-73642958D02*
X95405038Y-73547720D01*
X95405038Y-73547720D02*
X95452657Y-73500101D01*
X95452657Y-73500101D02*
X95547895Y-73452482D01*
X95547895Y-73452482D02*
X95738371Y-73404863D01*
X95738371Y-73404863D02*
X95976466Y-73404863D01*
X95976466Y-73404863D02*
X96166942Y-73452482D01*
X96166942Y-73452482D02*
X96262180Y-73500101D01*
X96262180Y-73500101D02*
X96309800Y-73547720D01*
X96309800Y-73547720D02*
X96357419Y-73642958D01*
X96357419Y-73642958D02*
X96357419Y-73738196D01*
X96357419Y-73738196D02*
X96309800Y-73833434D01*
X96309800Y-73833434D02*
X96262180Y-73881053D01*
X96262180Y-73881053D02*
X96166942Y-73928672D01*
X96166942Y-73928672D02*
X95976466Y-73976291D01*
X95976466Y-73976291D02*
X95738371Y-73976291D01*
X95738371Y-73976291D02*
X95547895Y-73928672D01*
X95547895Y-73928672D02*
X95452657Y-73881053D01*
X95452657Y-73881053D02*
X95405038Y-73833434D01*
X95405038Y-73833434D02*
X95357419Y-73738196D01*
X96357419Y-72976291D02*
X95690752Y-72976291D01*
X95785990Y-72976291D02*
X95738371Y-72928672D01*
X95738371Y-72928672D02*
X95690752Y-72833434D01*
X95690752Y-72833434D02*
X95690752Y-72690577D01*
X95690752Y-72690577D02*
X95738371Y-72595339D01*
X95738371Y-72595339D02*
X95833609Y-72547720D01*
X95833609Y-72547720D02*
X96357419Y-72547720D01*
X95833609Y-72547720D02*
X95738371Y-72500101D01*
X95738371Y-72500101D02*
X95690752Y-72404863D01*
X95690752Y-72404863D02*
X95690752Y-72262006D01*
X95690752Y-72262006D02*
X95738371Y-72166767D01*
X95738371Y-72166767D02*
X95833609Y-72119148D01*
X95833609Y-72119148D02*
X96357419Y-72119148D01*
X96357419Y-71642958D02*
X95690752Y-71642958D01*
X95785990Y-71642958D02*
X95738371Y-71595339D01*
X95738371Y-71595339D02*
X95690752Y-71500101D01*
X95690752Y-71500101D02*
X95690752Y-71357244D01*
X95690752Y-71357244D02*
X95738371Y-71262006D01*
X95738371Y-71262006D02*
X95833609Y-71214387D01*
X95833609Y-71214387D02*
X96357419Y-71214387D01*
X95833609Y-71214387D02*
X95738371Y-71166768D01*
X95738371Y-71166768D02*
X95690752Y-71071530D01*
X95690752Y-71071530D02*
X95690752Y-70928673D01*
X95690752Y-70928673D02*
X95738371Y-70833434D01*
X95738371Y-70833434D02*
X95833609Y-70785815D01*
X95833609Y-70785815D02*
X96357419Y-70785815D01*
X101708846Y-66750047D02*
X96413580Y-66750047D01*
X96413580Y-82250156D02*
X101707107Y-82250156D01*
X97000000Y-66750047D02*
X97000000Y-82250156D01*
X97000000Y-66750047D02*
X97586421Y-67876551D01*
X97000000Y-66750047D02*
X96413579Y-67876551D01*
X97000000Y-82250156D02*
X96413579Y-81123652D01*
X97000000Y-82250156D02*
X97586421Y-81123652D01*
X125511677Y-86057419D02*
X125035487Y-86057419D01*
X125035487Y-86057419D02*
X124987868Y-86533609D01*
X124987868Y-86533609D02*
X125035487Y-86485990D01*
X125035487Y-86485990D02*
X125130725Y-86438371D01*
X125130725Y-86438371D02*
X125368820Y-86438371D01*
X125368820Y-86438371D02*
X125464058Y-86485990D01*
X125464058Y-86485990D02*
X125511677Y-86533609D01*
X125511677Y-86533609D02*
X125559296Y-86628847D01*
X125559296Y-86628847D02*
X125559296Y-86866942D01*
X125559296Y-86866942D02*
X125511677Y-86962180D01*
X125511677Y-86962180D02*
X125464058Y-87009800D01*
X125464058Y-87009800D02*
X125368820Y-87057419D01*
X125368820Y-87057419D02*
X125130725Y-87057419D01*
X125130725Y-87057419D02*
X125035487Y-87009800D01*
X125035487Y-87009800D02*
X124987868Y-86962180D01*
X126464058Y-86057419D02*
X125987868Y-86057419D01*
X125987868Y-86057419D02*
X125940249Y-86533609D01*
X125940249Y-86533609D02*
X125987868Y-86485990D01*
X125987868Y-86485990D02*
X126083106Y-86438371D01*
X126083106Y-86438371D02*
X126321201Y-86438371D01*
X126321201Y-86438371D02*
X126416439Y-86485990D01*
X126416439Y-86485990D02*
X126464058Y-86533609D01*
X126464058Y-86533609D02*
X126511677Y-86628847D01*
X126511677Y-86628847D02*
X126511677Y-86866942D01*
X126511677Y-86866942D02*
X126464058Y-86962180D01*
X126464058Y-86962180D02*
X126416439Y-87009800D01*
X126416439Y-87009800D02*
X126321201Y-87057419D01*
X126321201Y-87057419D02*
X126083106Y-87057419D01*
X126083106Y-87057419D02*
X125987868Y-87009800D01*
X125987868Y-87009800D02*
X125940249Y-86962180D01*
X126940249Y-86962180D02*
X126987868Y-87009800D01*
X126987868Y-87009800D02*
X126940249Y-87057419D01*
X126940249Y-87057419D02*
X126892630Y-87009800D01*
X126892630Y-87009800D02*
X126940249Y-86962180D01*
X126940249Y-86962180D02*
X126940249Y-87057419D01*
X127606915Y-86057419D02*
X127702153Y-86057419D01*
X127702153Y-86057419D02*
X127797391Y-86105038D01*
X127797391Y-86105038D02*
X127845010Y-86152657D01*
X127845010Y-86152657D02*
X127892629Y-86247895D01*
X127892629Y-86247895D02*
X127940248Y-86438371D01*
X127940248Y-86438371D02*
X127940248Y-86676466D01*
X127940248Y-86676466D02*
X127892629Y-86866942D01*
X127892629Y-86866942D02*
X127845010Y-86962180D01*
X127845010Y-86962180D02*
X127797391Y-87009800D01*
X127797391Y-87009800D02*
X127702153Y-87057419D01*
X127702153Y-87057419D02*
X127606915Y-87057419D01*
X127606915Y-87057419D02*
X127511677Y-87009800D01*
X127511677Y-87009800D02*
X127464058Y-86962180D01*
X127464058Y-86962180D02*
X127416439Y-86866942D01*
X127416439Y-86866942D02*
X127368820Y-86676466D01*
X127368820Y-86676466D02*
X127368820Y-86438371D01*
X127368820Y-86438371D02*
X127416439Y-86247895D01*
X127416439Y-86247895D02*
X127464058Y-86152657D01*
X127464058Y-86152657D02*
X127511677Y-86105038D01*
X127511677Y-86105038D02*
X127606915Y-86057419D01*
X128559296Y-86057419D02*
X128654534Y-86057419D01*
X128654534Y-86057419D02*
X128749772Y-86105038D01*
X128749772Y-86105038D02*
X128797391Y-86152657D01*
X128797391Y-86152657D02*
X128845010Y-86247895D01*
X128845010Y-86247895D02*
X128892629Y-86438371D01*
X128892629Y-86438371D02*
X128892629Y-86676466D01*
X128892629Y-86676466D02*
X128845010Y-86866942D01*
X128845010Y-86866942D02*
X128797391Y-86962180D01*
X128797391Y-86962180D02*
X128749772Y-87009800D01*
X128749772Y-87009800D02*
X128654534Y-87057419D01*
X128654534Y-87057419D02*
X128559296Y-87057419D01*
X128559296Y-87057419D02*
X128464058Y-87009800D01*
X128464058Y-87009800D02*
X128416439Y-86962180D01*
X128416439Y-86962180D02*
X128368820Y-86866942D01*
X128368820Y-86866942D02*
X128321201Y-86676466D01*
X128321201Y-86676466D02*
X128321201Y-86438371D01*
X128321201Y-86438371D02*
X128368820Y-86247895D01*
X128368820Y-86247895D02*
X128416439Y-86152657D01*
X128416439Y-86152657D02*
X128464058Y-86105038D01*
X128464058Y-86105038D02*
X128559296Y-86057419D01*
X129511677Y-86057419D02*
X129606915Y-86057419D01*
X129606915Y-86057419D02*
X129702153Y-86105038D01*
X129702153Y-86105038D02*
X129749772Y-86152657D01*
X129749772Y-86152657D02*
X129797391Y-86247895D01*
X129797391Y-86247895D02*
X129845010Y-86438371D01*
X129845010Y-86438371D02*
X129845010Y-86676466D01*
X129845010Y-86676466D02*
X129797391Y-86866942D01*
X129797391Y-86866942D02*
X129749772Y-86962180D01*
X129749772Y-86962180D02*
X129702153Y-87009800D01*
X129702153Y-87009800D02*
X129606915Y-87057419D01*
X129606915Y-87057419D02*
X129511677Y-87057419D01*
X129511677Y-87057419D02*
X129416439Y-87009800D01*
X129416439Y-87009800D02*
X129368820Y-86962180D01*
X129368820Y-86962180D02*
X129321201Y-86866942D01*
X129321201Y-86866942D02*
X129273582Y-86676466D01*
X129273582Y-86676466D02*
X129273582Y-86438371D01*
X129273582Y-86438371D02*
X129321201Y-86247895D01*
X129321201Y-86247895D02*
X129368820Y-86152657D01*
X129368820Y-86152657D02*
X129416439Y-86105038D01*
X129416439Y-86105038D02*
X129511677Y-86057419D01*
X130273582Y-87057419D02*
X130273582Y-86390752D01*
X130273582Y-86485990D02*
X130321201Y-86438371D01*
X130321201Y-86438371D02*
X130416439Y-86390752D01*
X130416439Y-86390752D02*
X130559296Y-86390752D01*
X130559296Y-86390752D02*
X130654534Y-86438371D01*
X130654534Y-86438371D02*
X130702153Y-86533609D01*
X130702153Y-86533609D02*
X130702153Y-87057419D01*
X130702153Y-86533609D02*
X130749772Y-86438371D01*
X130749772Y-86438371D02*
X130845010Y-86390752D01*
X130845010Y-86390752D02*
X130987867Y-86390752D01*
X130987867Y-86390752D02*
X131083106Y-86438371D01*
X131083106Y-86438371D02*
X131130725Y-86533609D01*
X131130725Y-86533609D02*
X131130725Y-87057419D01*
X131606915Y-87057419D02*
X131606915Y-86390752D01*
X131606915Y-86485990D02*
X131654534Y-86438371D01*
X131654534Y-86438371D02*
X131749772Y-86390752D01*
X131749772Y-86390752D02*
X131892629Y-86390752D01*
X131892629Y-86390752D02*
X131987867Y-86438371D01*
X131987867Y-86438371D02*
X132035486Y-86533609D01*
X132035486Y-86533609D02*
X132035486Y-87057419D01*
X132035486Y-86533609D02*
X132083105Y-86438371D01*
X132083105Y-86438371D02*
X132178343Y-86390752D01*
X132178343Y-86390752D02*
X132321200Y-86390752D01*
X132321200Y-86390752D02*
X132416439Y-86438371D01*
X132416439Y-86438371D02*
X132464058Y-86533609D01*
X132464058Y-86533609D02*
X132464058Y-87057419D01*
X101207107Y-81750156D02*
X101207107Y-88286420D01*
X156292437Y-88286420D02*
X156292437Y-81750054D01*
X101207107Y-87700000D02*
X156292437Y-87700000D01*
X101207107Y-87700000D02*
X102333611Y-87113579D01*
X101207107Y-87700000D02*
X102333611Y-88286421D01*
X156292437Y-87700000D02*
X155165933Y-88286421D01*
X156292437Y-87700000D02*
X155165933Y-87113579D01*
D11*
X126333333Y-77854819D02*
X126000000Y-77378628D01*
X125761905Y-77854819D02*
X125761905Y-76854819D01*
X125761905Y-76854819D02*
X126142857Y-76854819D01*
X126142857Y-76854819D02*
X126238095Y-76902438D01*
X126238095Y-76902438D02*
X126285714Y-76950057D01*
X126285714Y-76950057D02*
X126333333Y-77045295D01*
X126333333Y-77045295D02*
X126333333Y-77188152D01*
X126333333Y-77188152D02*
X126285714Y-77283390D01*
X126285714Y-77283390D02*
X126238095Y-77331009D01*
X126238095Y-77331009D02*
X126142857Y-77378628D01*
X126142857Y-77378628D02*
X125761905Y-77378628D01*
X126666667Y-76854819D02*
X127285714Y-76854819D01*
X127285714Y-76854819D02*
X126952381Y-77235771D01*
X126952381Y-77235771D02*
X127095238Y-77235771D01*
X127095238Y-77235771D02*
X127190476Y-77283390D01*
X127190476Y-77283390D02*
X127238095Y-77331009D01*
X127238095Y-77331009D02*
X127285714Y-77426247D01*
X127285714Y-77426247D02*
X127285714Y-77664342D01*
X127285714Y-77664342D02*
X127238095Y-77759580D01*
X127238095Y-77759580D02*
X127190476Y-77807200D01*
X127190476Y-77807200D02*
X127095238Y-77854819D01*
X127095238Y-77854819D02*
X126809524Y-77854819D01*
X126809524Y-77854819D02*
X126714286Y-77807200D01*
X126714286Y-77807200D02*
X126666667Y-77759580D01*
X133333333Y-78054819D02*
X132857143Y-78054819D01*
X132857143Y-78054819D02*
X132857143Y-77054819D01*
X134190476Y-78054819D02*
X133619048Y-78054819D01*
X133904762Y-78054819D02*
X133904762Y-77054819D01*
X133904762Y-77054819D02*
X133809524Y-77197676D01*
X133809524Y-77197676D02*
X133714286Y-77292914D01*
X133714286Y-77292914D02*
X133619048Y-77340533D01*
X115083333Y-79609580D02*
X115035714Y-79657200D01*
X115035714Y-79657200D02*
X114892857Y-79704819D01*
X114892857Y-79704819D02*
X114797619Y-79704819D01*
X114797619Y-79704819D02*
X114654762Y-79657200D01*
X114654762Y-79657200D02*
X114559524Y-79561961D01*
X114559524Y-79561961D02*
X114511905Y-79466723D01*
X114511905Y-79466723D02*
X114464286Y-79276247D01*
X114464286Y-79276247D02*
X114464286Y-79133390D01*
X114464286Y-79133390D02*
X114511905Y-78942914D01*
X114511905Y-78942914D02*
X114559524Y-78847676D01*
X114559524Y-78847676D02*
X114654762Y-78752438D01*
X114654762Y-78752438D02*
X114797619Y-78704819D01*
X114797619Y-78704819D02*
X114892857Y-78704819D01*
X114892857Y-78704819D02*
X115035714Y-78752438D01*
X115035714Y-78752438D02*
X115083333Y-78800057D01*
X115654762Y-79133390D02*
X115559524Y-79085771D01*
X115559524Y-79085771D02*
X115511905Y-79038152D01*
X115511905Y-79038152D02*
X115464286Y-78942914D01*
X115464286Y-78942914D02*
X115464286Y-78895295D01*
X115464286Y-78895295D02*
X115511905Y-78800057D01*
X115511905Y-78800057D02*
X115559524Y-78752438D01*
X115559524Y-78752438D02*
X115654762Y-78704819D01*
X115654762Y-78704819D02*
X115845238Y-78704819D01*
X115845238Y-78704819D02*
X115940476Y-78752438D01*
X115940476Y-78752438D02*
X115988095Y-78800057D01*
X115988095Y-78800057D02*
X116035714Y-78895295D01*
X116035714Y-78895295D02*
X116035714Y-78942914D01*
X116035714Y-78942914D02*
X115988095Y-79038152D01*
X115988095Y-79038152D02*
X115940476Y-79085771D01*
X115940476Y-79085771D02*
X115845238Y-79133390D01*
X115845238Y-79133390D02*
X115654762Y-79133390D01*
X115654762Y-79133390D02*
X115559524Y-79181009D01*
X115559524Y-79181009D02*
X115511905Y-79228628D01*
X115511905Y-79228628D02*
X115464286Y-79323866D01*
X115464286Y-79323866D02*
X115464286Y-79514342D01*
X115464286Y-79514342D02*
X115511905Y-79609580D01*
X115511905Y-79609580D02*
X115559524Y-79657200D01*
X115559524Y-79657200D02*
X115654762Y-79704819D01*
X115654762Y-79704819D02*
X115845238Y-79704819D01*
X115845238Y-79704819D02*
X115940476Y-79657200D01*
X115940476Y-79657200D02*
X115988095Y-79609580D01*
X115988095Y-79609580D02*
X116035714Y-79514342D01*
X116035714Y-79514342D02*
X116035714Y-79323866D01*
X116035714Y-79323866D02*
X115988095Y-79228628D01*
X115988095Y-79228628D02*
X115940476Y-79181009D01*
X115940476Y-79181009D02*
X115845238Y-79133390D01*
X122083333Y-79584581D02*
X122035714Y-79632201D01*
X122035714Y-79632201D02*
X121892857Y-79679820D01*
X121892857Y-79679820D02*
X121797619Y-79679820D01*
X121797619Y-79679820D02*
X121654762Y-79632201D01*
X121654762Y-79632201D02*
X121559524Y-79536962D01*
X121559524Y-79536962D02*
X121511905Y-79441724D01*
X121511905Y-79441724D02*
X121464286Y-79251248D01*
X121464286Y-79251248D02*
X121464286Y-79108391D01*
X121464286Y-79108391D02*
X121511905Y-78917915D01*
X121511905Y-78917915D02*
X121559524Y-78822677D01*
X121559524Y-78822677D02*
X121654762Y-78727439D01*
X121654762Y-78727439D02*
X121797619Y-78679820D01*
X121797619Y-78679820D02*
X121892857Y-78679820D01*
X121892857Y-78679820D02*
X122035714Y-78727439D01*
X122035714Y-78727439D02*
X122083333Y-78775058D01*
X122940476Y-78679820D02*
X122750000Y-78679820D01*
X122750000Y-78679820D02*
X122654762Y-78727439D01*
X122654762Y-78727439D02*
X122607143Y-78775058D01*
X122607143Y-78775058D02*
X122511905Y-78917915D01*
X122511905Y-78917915D02*
X122464286Y-79108391D01*
X122464286Y-79108391D02*
X122464286Y-79489343D01*
X122464286Y-79489343D02*
X122511905Y-79584581D01*
X122511905Y-79584581D02*
X122559524Y-79632201D01*
X122559524Y-79632201D02*
X122654762Y-79679820D01*
X122654762Y-79679820D02*
X122845238Y-79679820D01*
X122845238Y-79679820D02*
X122940476Y-79632201D01*
X122940476Y-79632201D02*
X122988095Y-79584581D01*
X122988095Y-79584581D02*
X123035714Y-79489343D01*
X123035714Y-79489343D02*
X123035714Y-79251248D01*
X123035714Y-79251248D02*
X122988095Y-79156010D01*
X122988095Y-79156010D02*
X122940476Y-79108391D01*
X122940476Y-79108391D02*
X122845238Y-79060772D01*
X122845238Y-79060772D02*
X122654762Y-79060772D01*
X122654762Y-79060772D02*
X122559524Y-79108391D01*
X122559524Y-79108391D02*
X122511905Y-79156010D01*
X122511905Y-79156010D02*
X122464286Y-79251248D01*
X126333333Y-80454819D02*
X126000000Y-79978628D01*
X125761905Y-80454819D02*
X125761905Y-79454819D01*
X125761905Y-79454819D02*
X126142857Y-79454819D01*
X126142857Y-79454819D02*
X126238095Y-79502438D01*
X126238095Y-79502438D02*
X126285714Y-79550057D01*
X126285714Y-79550057D02*
X126333333Y-79645295D01*
X126333333Y-79645295D02*
X126333333Y-79788152D01*
X126333333Y-79788152D02*
X126285714Y-79883390D01*
X126285714Y-79883390D02*
X126238095Y-79931009D01*
X126238095Y-79931009D02*
X126142857Y-79978628D01*
X126142857Y-79978628D02*
X125761905Y-79978628D01*
X127238095Y-79454819D02*
X126761905Y-79454819D01*
X126761905Y-79454819D02*
X126714286Y-79931009D01*
X126714286Y-79931009D02*
X126761905Y-79883390D01*
X126761905Y-79883390D02*
X126857143Y-79835771D01*
X126857143Y-79835771D02*
X127095238Y-79835771D01*
X127095238Y-79835771D02*
X127190476Y-79883390D01*
X127190476Y-79883390D02*
X127238095Y-79931009D01*
X127238095Y-79931009D02*
X127285714Y-80026247D01*
X127285714Y-80026247D02*
X127285714Y-80264342D01*
X127285714Y-80264342D02*
X127238095Y-80359580D01*
X127238095Y-80359580D02*
X127190476Y-80407200D01*
X127190476Y-80407200D02*
X127095238Y-80454819D01*
X127095238Y-80454819D02*
X126857143Y-80454819D01*
X126857143Y-80454819D02*
X126761905Y-80407200D01*
X126761905Y-80407200D02*
X126714286Y-80359580D01*
X118583333Y-79609580D02*
X118535714Y-79657200D01*
X118535714Y-79657200D02*
X118392857Y-79704819D01*
X118392857Y-79704819D02*
X118297619Y-79704819D01*
X118297619Y-79704819D02*
X118154762Y-79657200D01*
X118154762Y-79657200D02*
X118059524Y-79561961D01*
X118059524Y-79561961D02*
X118011905Y-79466723D01*
X118011905Y-79466723D02*
X117964286Y-79276247D01*
X117964286Y-79276247D02*
X117964286Y-79133390D01*
X117964286Y-79133390D02*
X118011905Y-78942914D01*
X118011905Y-78942914D02*
X118059524Y-78847676D01*
X118059524Y-78847676D02*
X118154762Y-78752438D01*
X118154762Y-78752438D02*
X118297619Y-78704819D01*
X118297619Y-78704819D02*
X118392857Y-78704819D01*
X118392857Y-78704819D02*
X118535714Y-78752438D01*
X118535714Y-78752438D02*
X118583333Y-78800057D01*
X118916667Y-78704819D02*
X119583333Y-78704819D01*
X119583333Y-78704819D02*
X119154762Y-79704819D01*
D12*
%TO.C,C4*%
X140588748Y-69840000D02*
X142011252Y-69840000D01*
X140588748Y-72560000D02*
X142011252Y-72560000D01*
%TO.C,C5*%
X143795563Y-74127498D02*
X142510000Y-74127499D01*
X143795563Y-74127498D02*
X144860001Y-75191936D01*
X139104437Y-74127498D02*
X140390000Y-74127499D01*
X139104437Y-74127498D02*
X138039999Y-75191936D01*
X144860001Y-75191936D02*
X144860000Y-80947499D01*
X138039999Y-75191936D02*
X138040000Y-80947499D01*
X144860000Y-80947499D02*
X142510000Y-80947499D01*
X138040000Y-80947499D02*
X140390000Y-80947499D01*
%TO.C,R9*%
X143537258Y-68422500D02*
X143062742Y-68422500D01*
X143537258Y-67377500D02*
X143062742Y-67377500D01*
D10*
%TO.C,D1*%
X155349999Y-69189999D02*
G75*
G02*
X155250001Y-69189999I-49999J0D01*
G01*
X155250001Y-69189999D02*
G75*
G02*
X155349999Y-69189999I49999J0D01*
G01*
D12*
%TO.C,J2*%
X145400000Y-67200000D02*
X147500000Y-67200000D01*
X145400000Y-81900000D02*
X145400000Y-67200000D01*
X152500000Y-67200000D02*
X154600000Y-67200000D01*
X154600000Y-67200000D02*
X154600000Y-69000000D01*
X154600000Y-73400000D02*
X154600000Y-81900000D01*
X154600000Y-81900000D02*
X145400000Y-81900000D01*
D13*
%TO.C,G\u002A\u002A\u002A*%
G36*
X117443243Y-73762548D02*
G01*
X117443243Y-74403772D01*
X117150921Y-74405746D01*
X116858598Y-74407721D01*
X116858240Y-74190748D01*
X116857994Y-74130485D01*
X116857483Y-74071122D01*
X116856751Y-74015501D01*
X116855843Y-73966466D01*
X116854803Y-73926859D01*
X116853687Y-73899722D01*
X116852351Y-73863367D01*
X116852319Y-73828622D01*
X116853548Y-73800949D01*
X116854520Y-73792134D01*
X116859549Y-73758600D01*
X117443243Y-73762548D01*
G37*
G36*
X117445210Y-75869069D02*
G01*
X117443243Y-76191654D01*
X117155847Y-76193818D01*
X117079215Y-76194296D01*
X117016433Y-76194444D01*
X116966268Y-76194231D01*
X116927485Y-76193624D01*
X116898850Y-76192593D01*
X116879129Y-76191105D01*
X116867087Y-76189129D01*
X116861491Y-76186634D01*
X116861176Y-76186275D01*
X116859378Y-76176356D01*
X116857818Y-76152390D01*
X116856520Y-76115415D01*
X116855504Y-76066470D01*
X116854793Y-76006594D01*
X116854408Y-75936825D01*
X116854363Y-75863499D01*
X116854826Y-75550431D01*
X117151002Y-75548457D01*
X117447177Y-75546483D01*
X117445210Y-75869069D01*
G37*
G36*
X116639828Y-74407544D02*
G01*
X116497864Y-74407544D01*
X116435298Y-74408100D01*
X116385622Y-74410033D01*
X116346669Y-74413739D01*
X116316273Y-74419615D01*
X116292268Y-74428057D01*
X116272487Y-74439462D01*
X116257673Y-74451510D01*
X116232284Y-74479167D01*
X116214609Y-74510075D01*
X116203393Y-74547611D01*
X116197378Y-74595154D01*
X116196183Y-74616841D01*
X116193035Y-74694121D01*
X116818139Y-74696051D01*
X117443243Y-74697980D01*
X117443243Y-75256222D01*
X116198515Y-75263766D01*
X116198635Y-75339204D01*
X116199089Y-75375220D01*
X116200866Y-75400590D01*
X116204791Y-75419749D01*
X116211689Y-75437132D01*
X116219694Y-75452361D01*
X116250472Y-75493334D01*
X116290287Y-75522547D01*
X116337872Y-75539075D01*
X116338549Y-75539205D01*
X116359375Y-75541706D01*
X116391792Y-75543851D01*
X116432307Y-75545485D01*
X116477425Y-75546455D01*
X116508841Y-75546659D01*
X116639828Y-75546659D01*
X116639828Y-75866825D01*
X116639699Y-75934793D01*
X116639330Y-75997951D01*
X116638749Y-76054733D01*
X116637984Y-76103574D01*
X116637061Y-76142908D01*
X116636009Y-76171167D01*
X116634854Y-76186787D01*
X116634170Y-76189431D01*
X116625085Y-76189975D01*
X116603562Y-76189922D01*
X116572236Y-76189319D01*
X116533744Y-76188211D01*
X116504039Y-76187164D01*
X116383267Y-76177685D01*
X116272674Y-76158288D01*
X116170429Y-76128184D01*
X116074697Y-76086586D01*
X115983648Y-76032705D01*
X115895449Y-75965753D01*
X115813449Y-75890143D01*
X115760901Y-75835141D01*
X115718444Y-75784542D01*
X115683401Y-75734710D01*
X115653095Y-75682010D01*
X115638323Y-75652272D01*
X115620687Y-75613516D01*
X115606592Y-75578036D01*
X115594802Y-75541808D01*
X115584085Y-75500809D01*
X115573203Y-75451015D01*
X115566954Y-75419717D01*
X115563052Y-75399203D01*
X115559788Y-75380038D01*
X115557106Y-75360681D01*
X115554949Y-75339595D01*
X115553259Y-75315241D01*
X115551980Y-75286078D01*
X115551056Y-75250570D01*
X115550428Y-75207176D01*
X115550040Y-75154358D01*
X115549836Y-75090578D01*
X115549757Y-75014295D01*
X115549747Y-74954470D01*
X115549747Y-74577279D01*
X115571234Y-74483708D01*
X115596408Y-74391481D01*
X115627900Y-74309769D01*
X115667728Y-74234624D01*
X115717913Y-74162099D01*
X115764217Y-74106307D01*
X115846854Y-74021929D01*
X115934861Y-73950101D01*
X116029189Y-73890400D01*
X116130787Y-73842403D01*
X116240607Y-73805687D01*
X116359596Y-73779829D01*
X116488707Y-73764407D01*
X116539493Y-73761249D01*
X116639828Y-73756437D01*
X116639828Y-74407544D01*
G37*
G36*
X116659996Y-72522467D02*
G01*
X116771105Y-72522720D01*
X116895573Y-72523081D01*
X117034237Y-72523527D01*
X117043716Y-72523558D01*
X117941134Y-72526519D01*
X118027888Y-72545724D01*
X118119623Y-72570228D01*
X118201005Y-72601483D01*
X118275951Y-72641325D01*
X118348372Y-72691594D01*
X118362880Y-72703046D01*
X118441534Y-72773946D01*
X118510121Y-72851475D01*
X118567272Y-72933743D01*
X118611618Y-73018863D01*
X118633327Y-73076062D01*
X118643168Y-73107454D01*
X118650422Y-73133627D01*
X118656043Y-73159165D01*
X118660984Y-73188654D01*
X118666199Y-73226678D01*
X118668637Y-73245797D01*
X118669504Y-73260200D01*
X118670344Y-73289043D01*
X118671153Y-73331678D01*
X118671927Y-73387458D01*
X118672662Y-73455734D01*
X118673355Y-73535858D01*
X118674000Y-73627184D01*
X118674594Y-73729063D01*
X118675134Y-73840847D01*
X118675614Y-73961889D01*
X118676031Y-74091541D01*
X118676381Y-74229155D01*
X118676660Y-74374083D01*
X118676863Y-74525678D01*
X118676910Y-74573507D01*
X118677053Y-74735707D01*
X118677175Y-74883515D01*
X118677266Y-75017630D01*
X118677321Y-75138749D01*
X118677330Y-75247569D01*
X118677287Y-75344787D01*
X118677184Y-75431099D01*
X118677014Y-75507204D01*
X118676767Y-75573798D01*
X118676438Y-75631579D01*
X118676019Y-75681242D01*
X118675500Y-75723487D01*
X118674877Y-75759009D01*
X118674139Y-75788506D01*
X118673281Y-75812675D01*
X118672293Y-75832213D01*
X118671169Y-75847817D01*
X118669902Y-75860184D01*
X118668482Y-75870011D01*
X118666903Y-75877996D01*
X118665158Y-75884836D01*
X118663238Y-75891227D01*
X118662463Y-75893674D01*
X118636393Y-75957121D01*
X118600779Y-76016525D01*
X118558637Y-76067037D01*
X118548666Y-76076587D01*
X118510253Y-76109517D01*
X118474969Y-76133918D01*
X118436905Y-76153337D01*
X118392017Y-76170675D01*
X118333412Y-76191174D01*
X118016572Y-76192482D01*
X117948118Y-76192682D01*
X117883760Y-76192712D01*
X117825197Y-76192583D01*
X117774125Y-76192304D01*
X117732243Y-76191888D01*
X117701247Y-76191345D01*
X117682834Y-76190686D01*
X117678987Y-76190335D01*
X117658242Y-76186880D01*
X117658242Y-75548400D01*
X117784600Y-75545109D01*
X117837995Y-75543320D01*
X117878990Y-75540672D01*
X117910272Y-75536516D01*
X117934530Y-75530200D01*
X117954449Y-75521076D01*
X117972716Y-75508494D01*
X117987289Y-75496093D01*
X117997980Y-75486624D01*
X118007094Y-75478076D01*
X118014760Y-75469224D01*
X118021112Y-75458845D01*
X118026281Y-75445715D01*
X118030398Y-75428610D01*
X118033595Y-75406306D01*
X118036005Y-75377578D01*
X118037758Y-75341203D01*
X118038987Y-75295957D01*
X118039822Y-75240616D01*
X118040397Y-75173956D01*
X118040842Y-75094753D01*
X118041289Y-75001783D01*
X118041328Y-74993880D01*
X118041697Y-74889933D01*
X118041716Y-74798512D01*
X118041390Y-74720008D01*
X118040722Y-74654812D01*
X118039719Y-74603315D01*
X118038385Y-74565908D01*
X118036724Y-74542982D01*
X118035686Y-74536733D01*
X118016066Y-74491415D01*
X117983599Y-74453855D01*
X117956673Y-74434182D01*
X117942777Y-74425850D01*
X117930322Y-74419762D01*
X117916582Y-74415479D01*
X117898833Y-74412563D01*
X117874351Y-74410577D01*
X117840411Y-74409084D01*
X117794289Y-74407644D01*
X117790852Y-74407544D01*
X117662014Y-74403772D01*
X117662014Y-73762548D01*
X118039204Y-73755004D01*
X118038293Y-73626760D01*
X118037777Y-73578448D01*
X118036766Y-73541940D01*
X118034890Y-73513954D01*
X118031779Y-73491204D01*
X118027060Y-73470410D01*
X118020364Y-73448286D01*
X118016994Y-73438164D01*
X117986916Y-73371225D01*
X117944943Y-73310635D01*
X117893154Y-73258635D01*
X117833632Y-73217466D01*
X117794433Y-73198636D01*
X117752539Y-73181675D01*
X116922720Y-73177903D01*
X116092902Y-73174131D01*
X116045159Y-73156877D01*
X115979915Y-73127286D01*
X115926622Y-73089391D01*
X115883941Y-73041814D01*
X115850535Y-72983180D01*
X115833207Y-72938625D01*
X115819986Y-72876250D01*
X115820656Y-72813267D01*
X115834253Y-72751710D01*
X115859813Y-72693615D01*
X115896373Y-72641018D01*
X115942970Y-72595954D01*
X115998640Y-72560460D01*
X116016022Y-72552385D01*
X116027231Y-72547703D01*
X116038405Y-72543506D01*
X116050381Y-72539770D01*
X116063998Y-72536472D01*
X116080091Y-72533587D01*
X116099498Y-72531093D01*
X116123056Y-72528966D01*
X116151602Y-72527183D01*
X116185974Y-72525720D01*
X116227007Y-72524553D01*
X116275541Y-72523660D01*
X116332410Y-72523016D01*
X116398453Y-72522598D01*
X116474507Y-72522383D01*
X116561409Y-72522347D01*
X116659996Y-72522467D01*
G37*
D12*
%TO.C,R3*%
X127227064Y-76490000D02*
X125772936Y-76490000D01*
X127227064Y-78310000D02*
X125772936Y-78310000D01*
%TO.C,C10*%
X128459420Y-69890000D02*
X128740580Y-69890000D01*
X128459420Y-70910000D02*
X128740580Y-70910000D01*
%TO.C,Q1*%
X134490000Y-72610001D02*
X134490000Y-72870001D01*
X134490000Y-72870001D02*
X137990000Y-72870001D01*
X134810000Y-69370001D02*
X137990000Y-69370001D01*
X137990000Y-69370001D02*
X137990000Y-69630001D01*
X137990000Y-72610001D02*
X137990000Y-72870001D01*
X134490000Y-69630001D02*
X134010000Y-69630001D01*
X134490000Y-69150001D01*
X134490000Y-69630001D01*
G36*
X134490000Y-69630001D02*
G01*
X134010000Y-69630001D01*
X134490000Y-69150001D01*
X134490000Y-69630001D01*
G37*
%TO.C,C1*%
X126340581Y-73490000D02*
X126059419Y-73490000D01*
X126340581Y-74510000D02*
X126059419Y-74510000D01*
%TO.C,Q2*%
X130429999Y-69290000D02*
X130429999Y-72790000D01*
X130689999Y-69290000D02*
X130429999Y-69290000D01*
X130689999Y-72790000D02*
X130429999Y-72790000D01*
X133929999Y-69610000D02*
X133929999Y-72790000D01*
X133929999Y-72790000D02*
X133669999Y-72790000D01*
X134149999Y-69290000D02*
X133669999Y-69290000D01*
X133669999Y-68810000D01*
X134149999Y-69290000D01*
G36*
X134149999Y-69290000D02*
G01*
X133669999Y-69290000D01*
X133669999Y-68810000D01*
X134149999Y-69290000D01*
G37*
%TO.C,C2*%
X128459420Y-68090000D02*
X128740580Y-68090000D01*
X128459420Y-69110000D02*
X128740580Y-69110000D01*
%TO.C,C9*%
X128459419Y-71690000D02*
X128740581Y-71690000D01*
X128459419Y-72710000D02*
X128740581Y-72710000D01*
%TO.C,C11*%
X116435160Y-69290581D02*
X116435160Y-69009419D01*
X117455160Y-69290581D02*
X117455160Y-69009419D01*
%TO.C,L1*%
X129240000Y-73340000D02*
X129240000Y-74090000D01*
X129240000Y-73340000D02*
X137760000Y-73340000D01*
X129240000Y-81860000D02*
X129240000Y-81110000D01*
X129240000Y-81860000D02*
X137760000Y-81860000D01*
X137760000Y-73340000D02*
X137760000Y-74090000D01*
X137760000Y-81860000D02*
X137760000Y-81110000D01*
%TO.C,U1*%
X123190000Y-69065000D02*
X123190000Y-68830000D01*
X123190000Y-71810000D02*
X123190000Y-71335000D01*
X123665000Y-68590000D02*
X123490000Y-68590000D01*
X123665000Y-71810000D02*
X123190000Y-71810000D01*
X125935000Y-68590000D02*
X126410000Y-68590000D01*
X125935000Y-71810000D02*
X126410000Y-71810000D01*
X126410000Y-68590000D02*
X126410000Y-69065000D01*
X126410000Y-71810000D02*
X126410000Y-71335000D01*
X123190000Y-68590000D02*
X122950000Y-68260000D01*
X123430000Y-68260000D01*
X123190000Y-68590000D01*
G36*
X123190000Y-68590000D02*
G01*
X122950000Y-68260000D01*
X123430000Y-68260000D01*
X123190000Y-68590000D01*
G37*
%TO.C,R8*%
X121222660Y-69387258D02*
X121222660Y-68912742D01*
X122267660Y-69387258D02*
X122267660Y-68912742D01*
%TO.C,R4*%
X113222660Y-68918008D02*
X113222660Y-69392524D01*
X114267660Y-68918008D02*
X114267660Y-69392524D01*
%TO.C,J1*%
X101800000Y-67250000D02*
X103900000Y-67250000D01*
X101800000Y-81950000D02*
X101800000Y-67250000D01*
X108900000Y-67250000D02*
X111000000Y-67250000D01*
X111000000Y-67250000D02*
X111000000Y-69050000D01*
X111000000Y-73450000D02*
X111000000Y-81950000D01*
X111000000Y-81950000D02*
X101800000Y-81950000D01*
%TO.C,C12*%
X118035160Y-69290581D02*
X118035160Y-69009419D01*
X119055160Y-69290581D02*
X119055160Y-69009419D01*
%TO.C,C13*%
X119635160Y-69290581D02*
X119635160Y-69009419D01*
X120655160Y-69290581D02*
X120655160Y-69009419D01*
%TO.C,R1*%
X123377500Y-74362742D02*
X123377500Y-74837258D01*
X124422500Y-74362742D02*
X124422500Y-74837258D01*
%TO.C,R7*%
X117362742Y-71050008D02*
X117837258Y-71050008D01*
X117362742Y-72095008D02*
X117837258Y-72095008D01*
%TO.C,C8*%
X113890000Y-78538748D02*
X113890000Y-79961252D01*
X116610000Y-78538748D02*
X116610000Y-79961252D01*
%TO.C,C6*%
X120890000Y-78513749D02*
X120890000Y-79936253D01*
X123610000Y-78513749D02*
X123610000Y-79936253D01*
%TO.C,R2*%
X127977500Y-74362742D02*
X127977500Y-74837258D01*
X129022500Y-74362742D02*
X129022500Y-74837258D01*
%TO.C,R5*%
X127227064Y-79090000D02*
X125772936Y-79090000D01*
X127227064Y-80910000D02*
X125772936Y-80910000D01*
%TO.C,C7*%
X117390000Y-78538748D02*
X117390000Y-79961252D01*
X120110000Y-78538748D02*
X120110000Y-79961252D01*
%TO.C,R6*%
X114822660Y-69387258D02*
X114822660Y-68912742D01*
X115867660Y-69387258D02*
X115867660Y-68912742D01*
%TD*%
%LPC*%
D14*
%TO.C,C4*%
X139825000Y-71200000D03*
X142775000Y-71200000D03*
%TD*%
D15*
%TO.C,C5*%
X141450000Y-75000000D03*
X141450000Y-80074998D03*
%TD*%
D16*
%TO.C,R9*%
X144125000Y-67900000D03*
X142475000Y-67900000D03*
%TD*%
D17*
%TO.C,D1*%
X155300000Y-68585000D03*
X155300000Y-67615000D03*
%TD*%
D18*
%TO.C,J2*%
X150000000Y-68200000D03*
D19*
X150000000Y-74000000D03*
D20*
X154800000Y-71200000D03*
%TD*%
D21*
%TO.C,R3*%
X127962500Y-77400000D03*
X125037500Y-77400000D03*
%TD*%
D22*
%TO.C,C10*%
X127825000Y-70400000D03*
X129375000Y-70400000D03*
%TD*%
D23*
%TO.C,Q1*%
X134800000Y-70140001D03*
X134800000Y-70780001D03*
X134800000Y-71440001D03*
X134800000Y-72080001D03*
D24*
X136625000Y-71110001D03*
%TD*%
D25*
%TO.C,C1*%
X126975000Y-74000000D03*
X125425000Y-74000000D03*
%TD*%
D26*
%TO.C,Q2*%
X133159999Y-69600000D03*
X132519999Y-69600000D03*
X131859999Y-69600000D03*
X131219999Y-69600000D03*
D27*
X132189999Y-71425000D03*
%TD*%
D22*
%TO.C,C2*%
X127825000Y-68600000D03*
X129375000Y-68600000D03*
%TD*%
%TO.C,C9*%
X127825000Y-72200000D03*
X129375000Y-72200000D03*
%TD*%
D28*
%TO.C,C11*%
X116945160Y-69925000D03*
X116945160Y-68375000D03*
%TD*%
D29*
%TO.C,L1*%
X131240000Y-77600000D03*
X135760000Y-77600000D03*
%TD*%
D30*
%TO.C,U1*%
X123362500Y-69450000D03*
X123362500Y-69950000D03*
X123362500Y-70450000D03*
X123362500Y-70950000D03*
D31*
X124050000Y-71637500D03*
X124550000Y-71637500D03*
X125050000Y-71637500D03*
X125550000Y-71637500D03*
D30*
X126237500Y-70950000D03*
X126237500Y-70450000D03*
X126237500Y-69950000D03*
X126237500Y-69450000D03*
D31*
X125550000Y-68762500D03*
X125050000Y-68762500D03*
X124550000Y-68762500D03*
X124050000Y-68762500D03*
D32*
X124800000Y-70200000D03*
%TD*%
D33*
%TO.C,R8*%
X121745160Y-69975000D03*
X121745160Y-68325000D03*
%TD*%
D34*
%TO.C,R4*%
X113745160Y-68330266D03*
X113745160Y-69980266D03*
%TD*%
D18*
%TO.C,J1*%
X106400000Y-68250000D03*
D19*
X106400000Y-74050000D03*
D20*
X111200000Y-71250000D03*
%TD*%
D28*
%TO.C,C12*%
X118545160Y-69925000D03*
X118545160Y-68375000D03*
%TD*%
%TO.C,C13*%
X120145160Y-69925000D03*
X120145160Y-68375000D03*
%TD*%
D34*
%TO.C,R1*%
X123900000Y-73775000D03*
X123900000Y-75425000D03*
%TD*%
D35*
%TO.C,R7*%
X116775000Y-71572508D03*
X118425000Y-71572508D03*
%TD*%
D36*
%TO.C,C8*%
X115250000Y-77774999D03*
X115250000Y-80725001D03*
%TD*%
%TO.C,C6*%
X122250000Y-77750000D03*
X122250000Y-80700002D03*
%TD*%
D34*
%TO.C,R2*%
X128500000Y-73775000D03*
X128500000Y-75425000D03*
%TD*%
D21*
%TO.C,R5*%
X127962500Y-80000000D03*
X125037500Y-80000000D03*
%TD*%
D36*
%TO.C,C7*%
X118750000Y-77774999D03*
X118750000Y-80725001D03*
%TD*%
D33*
%TO.C,R6*%
X115345160Y-69975000D03*
X115345160Y-68325000D03*
%TD*%
%LPD*%
M02*
