%TF.GenerationSoftware,KiCad,Pcbnew,9.0.1*%
%TF.CreationDate,2025-07-19T16:42:16+10:00*%
%TF.ProjectId,starlink-apo-pcb,73746172-6c69-46e6-9b2d-61706f2d7063,rev?*%
%TF.SameCoordinates,Original*%
%TF.FileFunction,Legend,Bot*%
%TF.FilePolarity,Positive*%
%FSLAX46Y46*%
G04 Gerber Fmt 4.6, Leading zero omitted, Abs format (unit mm)*
G04 Created by KiCad (PCBNEW 9.0.1) date 2025-07-19 16:42:16*
%MOMM*%
%LPD*%
G01*
G04 APERTURE LIST*
%ADD10C,0.150000*%
%ADD11C,0.200000*%
%ADD12C,0.000000*%
%ADD13R,4.400000X1.800000*%
%ADD14O,4.000000X1.800000*%
%ADD15O,1.800000X4.000000*%
G04 APERTURE END LIST*
D10*
X109805704Y-77232268D02*
X109234276Y-77232268D01*
X109234276Y-77232268D02*
X109119990Y-77270363D01*
X109119990Y-77270363D02*
X109043800Y-77346554D01*
X109043800Y-77346554D02*
X109005704Y-77460839D01*
X109005704Y-77460839D02*
X109005704Y-77537030D01*
X109005704Y-76470363D02*
X109005704Y-76851315D01*
X109005704Y-76851315D02*
X109805704Y-76851315D01*
X109081895Y-75746553D02*
X109043800Y-75784649D01*
X109043800Y-75784649D02*
X109005704Y-75898934D01*
X109005704Y-75898934D02*
X109005704Y-75975125D01*
X109005704Y-75975125D02*
X109043800Y-76089411D01*
X109043800Y-76089411D02*
X109119990Y-76165601D01*
X109119990Y-76165601D02*
X109196180Y-76203696D01*
X109196180Y-76203696D02*
X109348561Y-76241792D01*
X109348561Y-76241792D02*
X109462847Y-76241792D01*
X109462847Y-76241792D02*
X109615228Y-76203696D01*
X109615228Y-76203696D02*
X109691419Y-76165601D01*
X109691419Y-76165601D02*
X109767609Y-76089411D01*
X109767609Y-76089411D02*
X109805704Y-75975125D01*
X109805704Y-75975125D02*
X109805704Y-75898934D01*
X109805704Y-75898934D02*
X109767609Y-75784649D01*
X109767609Y-75784649D02*
X109729514Y-75746553D01*
X109805704Y-75175125D02*
X109234276Y-75175125D01*
X109234276Y-75175125D02*
X109119990Y-75213220D01*
X109119990Y-75213220D02*
X109043800Y-75289411D01*
X109043800Y-75289411D02*
X109005704Y-75403696D01*
X109005704Y-75403696D02*
X109005704Y-75479887D01*
X109005704Y-74413220D02*
X109005704Y-74794172D01*
X109005704Y-74794172D02*
X109805704Y-74794172D01*
X109081895Y-73689410D02*
X109043800Y-73727506D01*
X109043800Y-73727506D02*
X109005704Y-73841791D01*
X109005704Y-73841791D02*
X109005704Y-73917982D01*
X109005704Y-73917982D02*
X109043800Y-74032268D01*
X109043800Y-74032268D02*
X109119990Y-74108458D01*
X109119990Y-74108458D02*
X109196180Y-74146553D01*
X109196180Y-74146553D02*
X109348561Y-74184649D01*
X109348561Y-74184649D02*
X109462847Y-74184649D01*
X109462847Y-74184649D02*
X109615228Y-74146553D01*
X109615228Y-74146553D02*
X109691419Y-74108458D01*
X109691419Y-74108458D02*
X109767609Y-74032268D01*
X109767609Y-74032268D02*
X109805704Y-73917982D01*
X109805704Y-73917982D02*
X109805704Y-73841791D01*
X109805704Y-73841791D02*
X109767609Y-73727506D01*
X109767609Y-73727506D02*
X109729514Y-73689410D01*
X109805704Y-73117982D02*
X109234276Y-73117982D01*
X109234276Y-73117982D02*
X109119990Y-73156077D01*
X109119990Y-73156077D02*
X109043800Y-73232268D01*
X109043800Y-73232268D02*
X109005704Y-73346553D01*
X109005704Y-73346553D02*
X109005704Y-73422744D01*
X109005704Y-72356077D02*
X109005704Y-72737029D01*
X109005704Y-72737029D02*
X109805704Y-72737029D01*
X109081895Y-71632267D02*
X109043800Y-71670363D01*
X109043800Y-71670363D02*
X109005704Y-71784648D01*
X109005704Y-71784648D02*
X109005704Y-71860839D01*
X109005704Y-71860839D02*
X109043800Y-71975125D01*
X109043800Y-71975125D02*
X109119990Y-72051315D01*
X109119990Y-72051315D02*
X109196180Y-72089410D01*
X109196180Y-72089410D02*
X109348561Y-72127506D01*
X109348561Y-72127506D02*
X109462847Y-72127506D01*
X109462847Y-72127506D02*
X109615228Y-72089410D01*
X109615228Y-72089410D02*
X109691419Y-72051315D01*
X109691419Y-72051315D02*
X109767609Y-71975125D01*
X109767609Y-71975125D02*
X109805704Y-71860839D01*
X109805704Y-71860839D02*
X109805704Y-71784648D01*
X109805704Y-71784648D02*
X109767609Y-71670363D01*
X109767609Y-71670363D02*
X109729514Y-71632267D01*
X109805704Y-71060839D02*
X109234276Y-71060839D01*
X109234276Y-71060839D02*
X109119990Y-71098934D01*
X109119990Y-71098934D02*
X109043800Y-71175125D01*
X109043800Y-71175125D02*
X109005704Y-71289410D01*
X109005704Y-71289410D02*
X109005704Y-71365601D01*
X109005704Y-70298934D02*
X109005704Y-70679886D01*
X109005704Y-70679886D02*
X109805704Y-70679886D01*
X109081895Y-69575124D02*
X109043800Y-69613220D01*
X109043800Y-69613220D02*
X109005704Y-69727505D01*
X109005704Y-69727505D02*
X109005704Y-69803696D01*
X109005704Y-69803696D02*
X109043800Y-69917982D01*
X109043800Y-69917982D02*
X109119990Y-69994172D01*
X109119990Y-69994172D02*
X109196180Y-70032267D01*
X109196180Y-70032267D02*
X109348561Y-70070363D01*
X109348561Y-70070363D02*
X109462847Y-70070363D01*
X109462847Y-70070363D02*
X109615228Y-70032267D01*
X109615228Y-70032267D02*
X109691419Y-69994172D01*
X109691419Y-69994172D02*
X109767609Y-69917982D01*
X109767609Y-69917982D02*
X109805704Y-69803696D01*
X109805704Y-69803696D02*
X109805704Y-69727505D01*
X109805704Y-69727505D02*
X109767609Y-69613220D01*
X109767609Y-69613220D02*
X109729514Y-69575124D01*
D11*
X142887469Y-72009824D02*
X142601755Y-72105062D01*
X142601755Y-72105062D02*
X142125564Y-72105062D01*
X142125564Y-72105062D02*
X141935088Y-72009824D01*
X141935088Y-72009824D02*
X141839850Y-71914585D01*
X141839850Y-71914585D02*
X141744612Y-71724109D01*
X141744612Y-71724109D02*
X141744612Y-71533633D01*
X141744612Y-71533633D02*
X141839850Y-71343157D01*
X141839850Y-71343157D02*
X141935088Y-71247919D01*
X141935088Y-71247919D02*
X142125564Y-71152681D01*
X142125564Y-71152681D02*
X142506517Y-71057443D01*
X142506517Y-71057443D02*
X142696993Y-70962204D01*
X142696993Y-70962204D02*
X142792231Y-70866966D01*
X142792231Y-70866966D02*
X142887469Y-70676490D01*
X142887469Y-70676490D02*
X142887469Y-70486014D01*
X142887469Y-70486014D02*
X142792231Y-70295538D01*
X142792231Y-70295538D02*
X142696993Y-70200300D01*
X142696993Y-70200300D02*
X142506517Y-70105062D01*
X142506517Y-70105062D02*
X142030326Y-70105062D01*
X142030326Y-70105062D02*
X141744612Y-70200300D01*
X141173183Y-70771728D02*
X140411279Y-70771728D01*
X140887469Y-70105062D02*
X140887469Y-71819347D01*
X140887469Y-71819347D02*
X140792231Y-72009824D01*
X140792231Y-72009824D02*
X140601755Y-72105062D01*
X140601755Y-72105062D02*
X140411279Y-72105062D01*
X138887469Y-72105062D02*
X138887469Y-71057443D01*
X138887469Y-71057443D02*
X138982707Y-70866966D01*
X138982707Y-70866966D02*
X139173183Y-70771728D01*
X139173183Y-70771728D02*
X139554136Y-70771728D01*
X139554136Y-70771728D02*
X139744612Y-70866966D01*
X138887469Y-72009824D02*
X139077945Y-72105062D01*
X139077945Y-72105062D02*
X139554136Y-72105062D01*
X139554136Y-72105062D02*
X139744612Y-72009824D01*
X139744612Y-72009824D02*
X139839850Y-71819347D01*
X139839850Y-71819347D02*
X139839850Y-71628871D01*
X139839850Y-71628871D02*
X139744612Y-71438395D01*
X139744612Y-71438395D02*
X139554136Y-71343157D01*
X139554136Y-71343157D02*
X139077945Y-71343157D01*
X139077945Y-71343157D02*
X138887469Y-71247919D01*
X137935088Y-72105062D02*
X137935088Y-70771728D01*
X137935088Y-71152681D02*
X137839850Y-70962204D01*
X137839850Y-70962204D02*
X137744612Y-70866966D01*
X137744612Y-70866966D02*
X137554136Y-70771728D01*
X137554136Y-70771728D02*
X137363659Y-70771728D01*
X136411279Y-72105062D02*
X136601755Y-72009824D01*
X136601755Y-72009824D02*
X136696993Y-71819347D01*
X136696993Y-71819347D02*
X136696993Y-70105062D01*
X135649374Y-72105062D02*
X135649374Y-70771728D01*
X135649374Y-70105062D02*
X135744612Y-70200300D01*
X135744612Y-70200300D02*
X135649374Y-70295538D01*
X135649374Y-70295538D02*
X135554136Y-70200300D01*
X135554136Y-70200300D02*
X135649374Y-70105062D01*
X135649374Y-70105062D02*
X135649374Y-70295538D01*
X134696993Y-70771728D02*
X134696993Y-72105062D01*
X134696993Y-70962204D02*
X134601755Y-70866966D01*
X134601755Y-70866966D02*
X134411279Y-70771728D01*
X134411279Y-70771728D02*
X134125564Y-70771728D01*
X134125564Y-70771728D02*
X133935088Y-70866966D01*
X133935088Y-70866966D02*
X133839850Y-71057443D01*
X133839850Y-71057443D02*
X133839850Y-72105062D01*
X132887469Y-72105062D02*
X132887469Y-70105062D01*
X132696993Y-71343157D02*
X132125564Y-72105062D01*
X132125564Y-70771728D02*
X132887469Y-71533633D01*
X142887469Y-74753521D02*
X141935088Y-74753521D01*
X143077945Y-75324950D02*
X142411279Y-73324950D01*
X142411279Y-73324950D02*
X141744612Y-75324950D01*
X141077945Y-75324950D02*
X141077945Y-73324950D01*
X141077945Y-73324950D02*
X140316040Y-73324950D01*
X140316040Y-73324950D02*
X140125564Y-73420188D01*
X140125564Y-73420188D02*
X140030326Y-73515426D01*
X140030326Y-73515426D02*
X139935088Y-73705902D01*
X139935088Y-73705902D02*
X139935088Y-73991616D01*
X139935088Y-73991616D02*
X140030326Y-74182092D01*
X140030326Y-74182092D02*
X140125564Y-74277331D01*
X140125564Y-74277331D02*
X140316040Y-74372569D01*
X140316040Y-74372569D02*
X141077945Y-74372569D01*
X138696993Y-73324950D02*
X138316040Y-73324950D01*
X138316040Y-73324950D02*
X138125564Y-73420188D01*
X138125564Y-73420188D02*
X137935088Y-73610664D01*
X137935088Y-73610664D02*
X137839850Y-73991616D01*
X137839850Y-73991616D02*
X137839850Y-74658283D01*
X137839850Y-74658283D02*
X137935088Y-75039235D01*
X137935088Y-75039235D02*
X138125564Y-75229712D01*
X138125564Y-75229712D02*
X138316040Y-75324950D01*
X138316040Y-75324950D02*
X138696993Y-75324950D01*
X138696993Y-75324950D02*
X138887469Y-75229712D01*
X138887469Y-75229712D02*
X139077945Y-75039235D01*
X139077945Y-75039235D02*
X139173183Y-74658283D01*
X139173183Y-74658283D02*
X139173183Y-73991616D01*
X139173183Y-73991616D02*
X139077945Y-73610664D01*
X139077945Y-73610664D02*
X138887469Y-73420188D01*
X138887469Y-73420188D02*
X138696993Y-73324950D01*
X135458897Y-75324950D02*
X135458897Y-73324950D01*
X135458897Y-73324950D02*
X134982707Y-73324950D01*
X134982707Y-73324950D02*
X134696992Y-73420188D01*
X134696992Y-73420188D02*
X134506516Y-73610664D01*
X134506516Y-73610664D02*
X134411278Y-73801140D01*
X134411278Y-73801140D02*
X134316040Y-74182092D01*
X134316040Y-74182092D02*
X134316040Y-74467807D01*
X134316040Y-74467807D02*
X134411278Y-74848759D01*
X134411278Y-74848759D02*
X134506516Y-75039235D01*
X134506516Y-75039235D02*
X134696992Y-75229712D01*
X134696992Y-75229712D02*
X134982707Y-75324950D01*
X134982707Y-75324950D02*
X135458897Y-75324950D01*
X132316040Y-75134473D02*
X132411278Y-75229712D01*
X132411278Y-75229712D02*
X132696992Y-75324950D01*
X132696992Y-75324950D02*
X132887468Y-75324950D01*
X132887468Y-75324950D02*
X133173183Y-75229712D01*
X133173183Y-75229712D02*
X133363659Y-75039235D01*
X133363659Y-75039235D02*
X133458897Y-74848759D01*
X133458897Y-74848759D02*
X133554135Y-74467807D01*
X133554135Y-74467807D02*
X133554135Y-74182092D01*
X133554135Y-74182092D02*
X133458897Y-73801140D01*
X133458897Y-73801140D02*
X133363659Y-73610664D01*
X133363659Y-73610664D02*
X133173183Y-73420188D01*
X133173183Y-73420188D02*
X132887468Y-73324950D01*
X132887468Y-73324950D02*
X132696992Y-73324950D01*
X132696992Y-73324950D02*
X132411278Y-73420188D01*
X132411278Y-73420188D02*
X132316040Y-73515426D01*
X131458897Y-74563045D02*
X129935088Y-74563045D01*
X128982707Y-75324950D02*
X128982707Y-73324950D01*
X128982707Y-73324950D02*
X128506517Y-73324950D01*
X128506517Y-73324950D02*
X128220802Y-73420188D01*
X128220802Y-73420188D02*
X128030326Y-73610664D01*
X128030326Y-73610664D02*
X127935088Y-73801140D01*
X127935088Y-73801140D02*
X127839850Y-74182092D01*
X127839850Y-74182092D02*
X127839850Y-74467807D01*
X127839850Y-74467807D02*
X127935088Y-74848759D01*
X127935088Y-74848759D02*
X128030326Y-75039235D01*
X128030326Y-75039235D02*
X128220802Y-75229712D01*
X128220802Y-75229712D02*
X128506517Y-75324950D01*
X128506517Y-75324950D02*
X128982707Y-75324950D01*
X125839850Y-75134473D02*
X125935088Y-75229712D01*
X125935088Y-75229712D02*
X126220802Y-75324950D01*
X126220802Y-75324950D02*
X126411278Y-75324950D01*
X126411278Y-75324950D02*
X126696993Y-75229712D01*
X126696993Y-75229712D02*
X126887469Y-75039235D01*
X126887469Y-75039235D02*
X126982707Y-74848759D01*
X126982707Y-74848759D02*
X127077945Y-74467807D01*
X127077945Y-74467807D02*
X127077945Y-74182092D01*
X127077945Y-74182092D02*
X126982707Y-73801140D01*
X126982707Y-73801140D02*
X126887469Y-73610664D01*
X126887469Y-73610664D02*
X126696993Y-73420188D01*
X126696993Y-73420188D02*
X126411278Y-73324950D01*
X126411278Y-73324950D02*
X126220802Y-73324950D01*
X126220802Y-73324950D02*
X125935088Y-73420188D01*
X125935088Y-73420188D02*
X125839850Y-73515426D01*
X142982707Y-77211504D02*
X142506517Y-78544838D01*
X142506517Y-78544838D02*
X142030326Y-77211504D01*
X140887469Y-76544838D02*
X140696992Y-76544838D01*
X140696992Y-76544838D02*
X140506516Y-76640076D01*
X140506516Y-76640076D02*
X140411278Y-76735314D01*
X140411278Y-76735314D02*
X140316040Y-76925790D01*
X140316040Y-76925790D02*
X140220802Y-77306742D01*
X140220802Y-77306742D02*
X140220802Y-77782933D01*
X140220802Y-77782933D02*
X140316040Y-78163885D01*
X140316040Y-78163885D02*
X140411278Y-78354361D01*
X140411278Y-78354361D02*
X140506516Y-78449600D01*
X140506516Y-78449600D02*
X140696992Y-78544838D01*
X140696992Y-78544838D02*
X140887469Y-78544838D01*
X140887469Y-78544838D02*
X141077945Y-78449600D01*
X141077945Y-78449600D02*
X141173183Y-78354361D01*
X141173183Y-78354361D02*
X141268421Y-78163885D01*
X141268421Y-78163885D02*
X141363659Y-77782933D01*
X141363659Y-77782933D02*
X141363659Y-77306742D01*
X141363659Y-77306742D02*
X141268421Y-76925790D01*
X141268421Y-76925790D02*
X141173183Y-76735314D01*
X141173183Y-76735314D02*
X141077945Y-76640076D01*
X141077945Y-76640076D02*
X140887469Y-76544838D01*
X139363659Y-78354361D02*
X139268421Y-78449600D01*
X139268421Y-78449600D02*
X139363659Y-78544838D01*
X139363659Y-78544838D02*
X139458897Y-78449600D01*
X139458897Y-78449600D02*
X139363659Y-78354361D01*
X139363659Y-78354361D02*
X139363659Y-78544838D01*
X138030326Y-76544838D02*
X137839849Y-76544838D01*
X137839849Y-76544838D02*
X137649373Y-76640076D01*
X137649373Y-76640076D02*
X137554135Y-76735314D01*
X137554135Y-76735314D02*
X137458897Y-76925790D01*
X137458897Y-76925790D02*
X137363659Y-77306742D01*
X137363659Y-77306742D02*
X137363659Y-77782933D01*
X137363659Y-77782933D02*
X137458897Y-78163885D01*
X137458897Y-78163885D02*
X137554135Y-78354361D01*
X137554135Y-78354361D02*
X137649373Y-78449600D01*
X137649373Y-78449600D02*
X137839849Y-78544838D01*
X137839849Y-78544838D02*
X138030326Y-78544838D01*
X138030326Y-78544838D02*
X138220802Y-78449600D01*
X138220802Y-78449600D02*
X138316040Y-78354361D01*
X138316040Y-78354361D02*
X138411278Y-78163885D01*
X138411278Y-78163885D02*
X138506516Y-77782933D01*
X138506516Y-77782933D02*
X138506516Y-77306742D01*
X138506516Y-77306742D02*
X138411278Y-76925790D01*
X138411278Y-76925790D02*
X138316040Y-76735314D01*
X138316040Y-76735314D02*
X138220802Y-76640076D01*
X138220802Y-76640076D02*
X138030326Y-76544838D01*
X136506516Y-78354361D02*
X136411278Y-78449600D01*
X136411278Y-78449600D02*
X136506516Y-78544838D01*
X136506516Y-78544838D02*
X136601754Y-78449600D01*
X136601754Y-78449600D02*
X136506516Y-78354361D01*
X136506516Y-78354361D02*
X136506516Y-78544838D01*
X134506516Y-78544838D02*
X135649373Y-78544838D01*
X135077945Y-78544838D02*
X135077945Y-76544838D01*
X135077945Y-76544838D02*
X135268421Y-76830552D01*
X135268421Y-76830552D02*
X135458897Y-77021028D01*
X135458897Y-77021028D02*
X135649373Y-77116266D01*
D12*
%TO.C,G\u002A\u002A\u002A*%
G36*
X120607135Y-72572410D02*
G01*
X120609914Y-72597604D01*
X120613428Y-72676699D01*
X120613335Y-72776011D01*
X120609516Y-72879920D01*
X120606326Y-72957485D01*
X120603354Y-73070690D01*
X120600758Y-73210845D01*
X120598666Y-73369822D01*
X120597205Y-73539496D01*
X120596502Y-73711741D01*
X120595480Y-74331901D01*
X119759953Y-74326257D01*
X118924427Y-74320613D01*
X118924427Y-72487846D01*
X119758594Y-72482203D01*
X120592762Y-72476561D01*
X120607135Y-72572410D01*
G37*
G36*
X120606261Y-77598033D02*
G01*
X120607583Y-78492854D01*
X120607455Y-78702438D01*
X120606356Y-78901854D01*
X120604323Y-79072994D01*
X120601419Y-79212890D01*
X120597708Y-79318572D01*
X120593251Y-79387073D01*
X120588112Y-79415424D01*
X120587211Y-79416452D01*
X120571216Y-79423584D01*
X120536798Y-79429230D01*
X120480430Y-79433482D01*
X120398584Y-79436430D01*
X120287733Y-79438164D01*
X120144348Y-79438775D01*
X119964904Y-79438352D01*
X119745872Y-79436985D01*
X118924427Y-79430800D01*
X118918804Y-78508775D01*
X118913183Y-77586752D01*
X120606261Y-77598033D01*
G37*
G36*
X121507556Y-72484133D02*
G01*
X121652715Y-72493160D01*
X122021742Y-72537239D01*
X122361844Y-72611146D01*
X122675733Y-72716088D01*
X122966126Y-72853276D01*
X123235737Y-73023916D01*
X123487282Y-73229218D01*
X123723476Y-73470389D01*
X123855826Y-73629856D01*
X123999264Y-73837149D01*
X124113104Y-74051930D01*
X124203116Y-74285483D01*
X124275068Y-74549089D01*
X124336481Y-74816539D01*
X124336481Y-75894637D01*
X124336452Y-76065632D01*
X124336229Y-76283665D01*
X124335645Y-76465966D01*
X124334536Y-76616931D01*
X124332742Y-76740961D01*
X124330099Y-76842452D01*
X124326444Y-76925804D01*
X124321614Y-76995416D01*
X124315448Y-77055685D01*
X124307783Y-77111010D01*
X124298453Y-77165790D01*
X124287299Y-77224423D01*
X124269439Y-77313880D01*
X124238338Y-77456201D01*
X124207704Y-77573386D01*
X124174007Y-77676935D01*
X124133720Y-77778346D01*
X124083313Y-77889119D01*
X124041090Y-77974116D01*
X123954468Y-78124747D01*
X123854306Y-78267178D01*
X123732954Y-78411802D01*
X123582760Y-78569010D01*
X123348386Y-78785123D01*
X123096292Y-78976486D01*
X122836052Y-79130490D01*
X122562429Y-79249388D01*
X122270186Y-79335432D01*
X121954086Y-79390873D01*
X121608892Y-79417966D01*
X121523990Y-79420959D01*
X121413969Y-79424124D01*
X121324433Y-79425848D01*
X121262915Y-79425999D01*
X121236948Y-79424446D01*
X121234991Y-79416889D01*
X121231691Y-79372243D01*
X121228683Y-79291471D01*
X121226046Y-79179047D01*
X121223859Y-79039448D01*
X121222198Y-78877150D01*
X121221145Y-78696630D01*
X121220777Y-78502364D01*
X121220777Y-77587251D01*
X121595168Y-77587252D01*
X121684959Y-77586671D01*
X121813920Y-77583896D01*
X121929721Y-77579226D01*
X122022377Y-77573097D01*
X122081900Y-77565947D01*
X122083837Y-77565576D01*
X122219847Y-77518334D01*
X122333645Y-77434837D01*
X122421617Y-77317726D01*
X122444496Y-77274198D01*
X122464213Y-77224516D01*
X122475431Y-77169754D01*
X122480510Y-77097239D01*
X122481809Y-76994298D01*
X122482152Y-76778678D01*
X120703290Y-76767897D01*
X118924427Y-76757116D01*
X118924427Y-75161530D01*
X120711121Y-75156015D01*
X122497815Y-75150499D01*
X122488815Y-74929614D01*
X122485400Y-74867628D01*
X122468209Y-74731740D01*
X122436150Y-74624454D01*
X122385632Y-74536112D01*
X122313065Y-74457061D01*
X122270722Y-74422623D01*
X122214185Y-74390026D01*
X122145572Y-74365896D01*
X122058693Y-74349101D01*
X121947356Y-74338509D01*
X121805368Y-74332984D01*
X121626541Y-74331395D01*
X121220777Y-74331394D01*
X121220777Y-72470379D01*
X121507556Y-72484133D01*
G37*
G36*
X121693300Y-68943164D02*
G01*
X121910681Y-68943778D01*
X122099449Y-68944972D01*
X122261995Y-68946812D01*
X122400714Y-68949366D01*
X122517998Y-68952700D01*
X122616240Y-68956883D01*
X122697831Y-68961980D01*
X122765166Y-68968059D01*
X122820635Y-68975188D01*
X122866633Y-68983432D01*
X122905552Y-68992860D01*
X122939784Y-69003539D01*
X122971722Y-69015535D01*
X123003760Y-69028916D01*
X123053442Y-69051997D01*
X123212560Y-69153448D01*
X123345744Y-69282250D01*
X123450242Y-69432584D01*
X123523299Y-69598632D01*
X123562160Y-69774577D01*
X123564075Y-69954599D01*
X123526286Y-70132881D01*
X123476761Y-70260229D01*
X123381278Y-70427820D01*
X123259285Y-70563804D01*
X123106960Y-70672117D01*
X122920479Y-70756697D01*
X122784020Y-70806012D01*
X118040386Y-70827574D01*
X117920644Y-70876052D01*
X117808603Y-70929874D01*
X117638476Y-71047544D01*
X117490452Y-71196171D01*
X117370481Y-71369351D01*
X117284514Y-71560681D01*
X117274879Y-71589611D01*
X117255741Y-71652845D01*
X117242255Y-71712282D01*
X117233361Y-71777304D01*
X117227999Y-71857297D01*
X117225111Y-71961645D01*
X117223635Y-72099730D01*
X117221031Y-72466284D01*
X117760081Y-72477065D01*
X118299130Y-72487846D01*
X118299130Y-74320613D01*
X117930879Y-74331394D01*
X117921056Y-74331682D01*
X117789227Y-74335796D01*
X117692219Y-74340065D01*
X117622244Y-74345741D01*
X117571514Y-74354075D01*
X117532243Y-74366317D01*
X117496642Y-74383719D01*
X117456923Y-74407532D01*
X117379964Y-74463761D01*
X117287165Y-74571118D01*
X117231085Y-74700649D01*
X117228119Y-74718509D01*
X117223373Y-74784038D01*
X117219559Y-74890955D01*
X117216691Y-75038146D01*
X117214784Y-75224491D01*
X117213850Y-75448873D01*
X117213904Y-75710176D01*
X117214960Y-76007281D01*
X117215071Y-76029870D01*
X117216349Y-76295600D01*
X117217621Y-76521981D01*
X117219263Y-76712511D01*
X117221652Y-76870689D01*
X117225164Y-77000012D01*
X117230175Y-77103979D01*
X117237062Y-77186089D01*
X117246201Y-77249841D01*
X117257969Y-77298731D01*
X117272742Y-77336260D01*
X117290898Y-77365925D01*
X117312810Y-77391224D01*
X117338858Y-77415658D01*
X117369415Y-77442723D01*
X117411068Y-77478168D01*
X117463281Y-77514132D01*
X117520214Y-77540210D01*
X117589548Y-77558261D01*
X117678961Y-77570142D01*
X117796135Y-77577709D01*
X117948748Y-77582821D01*
X118309911Y-77592228D01*
X118309911Y-79417155D01*
X118250615Y-79427030D01*
X118239619Y-79428033D01*
X118186992Y-79429917D01*
X118098398Y-79431470D01*
X117978688Y-79432659D01*
X117832714Y-79433454D01*
X117665325Y-79433824D01*
X117481377Y-79433739D01*
X117285717Y-79433167D01*
X116380115Y-79429427D01*
X116212610Y-79370836D01*
X116084309Y-79321282D01*
X115975513Y-79265775D01*
X115874664Y-79196034D01*
X115764868Y-79101911D01*
X115736371Y-79074614D01*
X115615918Y-78930240D01*
X115514125Y-78760450D01*
X115439610Y-78579102D01*
X115437397Y-78572108D01*
X115431909Y-78553841D01*
X115426919Y-78534292D01*
X115422407Y-78511469D01*
X115418350Y-78483380D01*
X115414726Y-78448032D01*
X115411514Y-78403432D01*
X115408692Y-78347588D01*
X115406238Y-78278508D01*
X115404130Y-78194199D01*
X115402347Y-78092668D01*
X115400866Y-77971924D01*
X115399666Y-77829973D01*
X115398725Y-77664823D01*
X115398022Y-77474481D01*
X115397534Y-77256956D01*
X115397239Y-77010254D01*
X115397117Y-76732383D01*
X115397144Y-76421350D01*
X115397300Y-76075165D01*
X115397562Y-75691832D01*
X115397908Y-75269361D01*
X115398318Y-74805758D01*
X115398452Y-74669051D01*
X115399034Y-74235758D01*
X115399830Y-73821517D01*
X115400830Y-73428184D01*
X115402023Y-73057608D01*
X115403395Y-72711642D01*
X115404937Y-72392136D01*
X115406635Y-72100943D01*
X115408480Y-71839913D01*
X115410459Y-71610898D01*
X115412560Y-71415750D01*
X115414773Y-71256319D01*
X115417085Y-71134458D01*
X115419486Y-71052018D01*
X115421963Y-71010851D01*
X115428933Y-70956203D01*
X115443839Y-70847521D01*
X115457961Y-70763236D01*
X115474026Y-70690242D01*
X115494760Y-70615434D01*
X115522889Y-70525707D01*
X115584940Y-70362218D01*
X115711688Y-70118926D01*
X115875039Y-69883784D01*
X116071078Y-69662189D01*
X116295890Y-69459540D01*
X116337356Y-69426809D01*
X116544354Y-69283129D01*
X116758565Y-69169249D01*
X116991175Y-69079917D01*
X117253374Y-69009877D01*
X117501337Y-68954985D01*
X120066369Y-68946522D01*
X120093462Y-68946432D01*
X120489797Y-68945156D01*
X120845555Y-68944125D01*
X121163130Y-68943404D01*
X121444915Y-68943061D01*
X121693300Y-68943164D01*
G37*
%TD*%
%LPC*%
D13*
%TO.C,J2*%
X150000000Y-68200000D03*
D14*
X150000000Y-74000000D03*
D15*
X154800000Y-71200000D03*
%TD*%
D13*
%TO.C,J1*%
X106400000Y-68250000D03*
D14*
X106400000Y-74050000D03*
D15*
X111200000Y-71250000D03*
%TD*%
%LPD*%
M02*
